<svg xmlns="http://www.w3.org/2000/svg" width="196" height="81" viewBox="0 0 196 81">
    <g fill="none" fill-rule="evenodd">
        <g>
            <path d="M126.229 74.489H9.855c-.24 0-.433-.194-.433-.432V3.94c0-2.176 1.766-3.94 3.945-3.94h109.35c2.179 0 3.945 1.764 3.945 3.94v70.117c0 .238-.194.432-.433.432" transform="translate(0 1)"/>
            <path fill="#FFF" stroke="#63BA97" d="M126.229 74.489H9.855c-.24 0-.433-.194-.433-.432V3.94c0-2.176 1.766-3.94 3.945-3.94h109.35c2.179 0 3.945 1.764 3.945 3.94v70.117c0 .238-.194.432-.433.432z" transform="translate(0 1)"/>
            <path fill="#63BA97" d="M131.531 79.885H4.553C2.038 79.885 0 77.849 0 75.338v-.049c0-.6.488-1.088 1.09-1.088h133.904c.602 0 1.09.488 1.09 1.088v.049c0 2.511-2.038 4.547-4.553 4.547" transform="translate(0 1)"/>
            <path fill="#FFF" d="M57.284 77.041c-1.459 0-2.641-1.18-2.641-2.638v-.17c0-.097.079-.177.177-.177h26.444c.098 0 .177.08.177.178v.169c0 1.457-1.182 2.638-2.641 2.638H57.284z" transform="translate(0 1)"/>
            <path stroke="#63BA97" stroke-width=".8" d="M14.468 70.017L121.616 70.017 121.616 5.501 14.468 5.501z" transform="translate(0 1)"/>
            <g transform="translate(0 1) translate(136 30.4)">
                <g>
                    <path stroke="#333" d="M3.153 2.187c0 .518-.424.938-.946.938s-.946-.42-.946-.938c0-.517.424-.937.946-.937s.946.42.946.937M40.99 2.187c0 .518-.424.938-.947.938-.522 0-.945-.42-.945-.938 0-.517.423-.937.945-.937.523 0 .946.42.946.937M3.153 33.853c0 .518-.424.937-.946.937s-.946-.42-.946-.937c0-.518.424-.938.946-.938s.946.42.946.938M40.99 33.853c0 .518-.424.937-.947.937-.522 0-.945-.42-.945-.937 0-.518.423-.938.945-.938.523 0 .946.42.946.938"/>
                    <path fill="#FFF" stroke="#63BA97" d="M0 2.5v31.04c0 1.375 1.135 2.5 2.522 2.5H52.55c1.388 0 2.523-1.125 2.523-2.5V2.5c0-1.375-1.135-2.5-2.523-2.5H2.522C1.135 0 0 1.125 0 2.5"/>
                </g>
                <circle cx="6.4" cy="6.4" r="1.6" fill="#91CEB6"/>
                <circle cx="11.2" cy="6.4" r="1.6" fill="#91CEB6"/>
                <circle cx="16" cy="6.4" r="1.6" fill="#91CEB6"/>
                <circle cx="20.8" cy="6.4" r="1.6" fill="#91CEB6"/>
                <circle cx="25.6" cy="6.4" r="1.6" fill="#91CEB6"/>
                <circle cx="30.4" cy="6.4" r="1.6" fill="#91CEB6"/>
                <circle cx="6.4" cy="11.2" r="1.6" fill="#91CEB6"/>
                <circle cx="11.2" cy="11.2" r="1.6" fill="#91CEB6"/>
                <circle cx="16" cy="11.2" r="1.6" fill="#91CEB6"/>
                <circle cx="20.8" cy="11.2" r="1.6" fill="#91CEB6"/>
                <circle cx="25.6" cy="11.2" r="1.6" fill="#91CEB6"/>
                <circle cx="30.4" cy="11.2" r="1.6" fill="#91CEB6"/>
                <path fill="#FFF" stroke="#91CEB6" stroke-width=".8" d="M58.775 17.25v8.68c0 .253-.21.46-.466.46H46.441c-.256 0-.466-.207-.466-.46v-8.68c0-.253.21-.46.466-.46h11.868c.256 0 .466.207.466.46M58.775 4.45v8.68c0 .253-.21.46-.466.46H46.441c-.256 0-.466-.207-.466-.46V4.45c0-.253.21-.46.466-.46h11.868c.256 0 .466.207.466.46M28.52 29.445v8.457c0 .314-.247.572-.547.572H16.266c-.3 0-.547-.258-.547-.572v-8.457c0-.314.246-.571.547-.571h11.707c.3 0 .546.257.546.571"/>
            </g>
        </g>
        <g transform="translate(0 1) translate(43 13)">
            <circle cx="26" cy="26" r="26" fill="#FFF" stroke="#63BA97"/>
            <g fill="#333">
                <path d="M14.645 28.818L15.288 28.818 15.288 1.415 14.645 1.415z" transform="translate(11.375 10.563)"/>
                <path d="M7.913 3.392L8.469 3.071 22.167 26.802 21.61 27.124z" transform="translate(11.375 10.563)"/>
                <path d="M3.07 8.472L3.391 7.915 27.115 21.616 26.794 22.173z" transform="translate(11.375 10.563)"/>
                <path d="M26.865 8.472L26.543 7.915 2.819 21.616 3.141 22.173z" transform="translate(11.375 10.563)"/>
                <path d="M22.022 3.392L21.465 3.071 7.768 26.802 8.325 27.124z" transform="translate(11.375 10.563)"/>
                <path d="M1.415 15.293L28.809 15.293 28.809 14.651 1.415 14.651zM14.967 2.251c.62 0 1.126-.505 1.126-1.125S15.587 0 14.967 0c-.62 0-1.125.506-1.125 1.126 0 .62.506 1.125 1.125 1.125M14.967 29.943c.62 0 1.126-.506 1.126-1.126 0-.62-.506-1.125-1.126-1.125-.62 0-1.125.505-1.125 1.125s.506 1.126 1.125 1.126M7.484 2.006c.538-.31 1.226-.126 1.537.412.31.538.126 1.227-.412 1.538-.538.31-1.226.126-1.537-.412-.31-.539-.127-1.227.412-1.538M21.325 25.988c.538-.31 1.227-.126 1.538.412.31.538.126 1.227-.412 1.537-.538.311-1.226.127-1.537-.411-.31-.539-.127-1.227.411-1.538M2.005 7.486c.311-.538 1-.723 1.538-.412.538.31.722 1 .411 1.538-.31.538-.998.723-1.537.412-.538-.311-.722-1-.412-1.538M25.98 21.332c.31-.538.999-.723 1.537-.412.539.31.723 1 .412 1.538-.31.538-.999.722-1.537.412-.538-.311-.723-1-.412-1.538M27.93 7.486c-.311-.538-1-.723-1.538-.412-.538.31-.723 1-.412 1.538.31.538 1 .723 1.537.412.539-.311.723-1 .412-1.538M3.955 21.332c-.311-.538-1-.723-1.538-.412-.538.31-.722 1-.411 1.538.31.538.998.722 1.537.412.538-.311.722-1 .412-1.538M22.451 2.006c-.538-.31-1.227-.126-1.538.412-.31.538-.126 1.227.412 1.538.539.31 1.227.126 1.538-.412.31-.539.126-1.227-.412-1.538M8.61 25.988c-.54-.31-1.227-.126-1.538.412-.31.538-.127 1.227.411 1.537.539.311 1.227.127 1.538-.411.31-.539.126-1.227-.412-1.538" transform="translate(11.375 10.563)"/>
                <path d="M0 14.972c0-.622.504-1.126 1.125-1.126.622 0 1.126.504 1.126 1.126 0 .621-.504 1.126-1.126 1.126-.621 0-1.125-.505-1.125-1.126M27.684 14.972c0-.622.503-1.126 1.125-1.126s1.125.504 1.125 1.126c0 .621-.503 1.126-1.125 1.126s-1.125-.505-1.125-1.126M10.024 22.992c-4.625-2.73-6.162-8.695-3.432-13.322 2.73-4.627 8.693-6.163 13.318-3.433 4.626 2.731 6.162 8.696 3.432 13.322-2.73 4.627-8.693 6.164-13.318 3.433" transform="translate(11.375 10.563)"/>
            </g>
            <path stroke="#63BA97" d="M8.885 7.079L45.284 43.478"/>
        </g>
    </g>
</svg>
