<?xml version="1.0" encoding="UTF-8"?>
<svg width="10px" height="10px" viewBox="0 0 10 10" version="1.1" xmlns="http://www.w3.org/2000/svg" xmlns:xlink="http://www.w3.org/1999/xlink">
    <!-- Generator: Sketch 63.1 (92452) - https://sketch.com -->
    <title>dot_2</title>
    <desc>Created with Sketch.</desc>
    <g id="Symbols" stroke="none" stroke-width="1" fill="none" fill-rule="evenodd">
        <g id="pin/circle/dark-2" transform="translate(1.000000, 1.000000)">
            <g id="dot_2" transform="translate(-0.500000, -0.500000)">
                <circle id="Oval-Copy" fill="#333333" cx="4.5" cy="4.5" r="4"></circle>
                <path d="M4.5,0 C2.01471863,0 0,2.01471863 0,4.5 C0,6.98528137 2.01471863,9 4.5,9 C6.98528137,9 9,6.98528137 9,4.5 C9,2.01471863 6.98528137,0 4.5,0 Z M4.5,1 C6.43299662,1 8,2.56700338 8,4.5 C8,6.43299662 6.43299662,8 4.5,8 C2.56700338,8 1,6.43299662 1,4.5 C1,2.56700338 2.56700338,1 4.5,1 Z" id="Oval" fill="#FFFFFF" fill-rule="nonzero"></path>
                <circle id="Oval" fill="#FFFFFF" cx="4.5" cy="4.5" r="1"></circle>
            </g>
        </g>
    </g>
</svg>