<svg xmlns="http://www.w3.org/2000/svg" width="550" height="562" viewBox="0 0 550 562">
    <g fill="none" fill-rule="evenodd">
        <path fill="#E0F1EA" d="M103.392 17.157c.924-.56 2.608 2.316 5.51 2.073 1.503-.126 1.829-.963 3.615-1.036 1.926-.079 3.823.8 3.788 1.382-.054.917-4.893.458-5.682 2.59-.39 1.058.639 1.61.69 3.454.05 1.866-.925 4.13-2.584 5.182-2.718 1.723-5.792-.755-7.23.864-1.13 1.271.332 3.291-1.034 4.663-1.11 1.115-2.82.529-3.27 1.554-.325.737.46 1.264.688 2.418.513 2.588-2.64 3.904-2.927 6.736-.196 1.927 1.051 3.42 3.099 5.873 1.03 1.233 3.674 4.4 7.92 5.527 1.742.462 2.243.18 3.099.863 2.482 1.979 1.121 6.611 2.238 6.91.78.207 2.15-1.865 2.927-3.8 1.376-3.429.231-4.77 1.205-7.773 1.148-3.539 3.137-2.902 4.649-6.564.771-1.868.801-4.296.86-9.153.062-5.002-.298-6.427.69-7.082 1.44-.954 4.81.346 5.853 2.59 1.217 2.622-1.385 5.151 0 6.91.866 1.1 2.893 1.393 4.132.691 2.1-1.191 1.458-4.974 2.583-5.182.971-.18 2.231 2.496 2.583 3.282 2.569 5.748.43 8.667 2.926 11.744 1.802 2.22 3.645 1.601 4.305 3.628.8 2.456-1.691 4.033-.861 7.08.476 1.75 1.439 1.752 1.894 3.8.278 1.252.511 3.919-.861 4.664-1.266.687-3.527-.46-4.304-2.072-.91-1.884.628-3.524-.173-4.319-1.204-1.194-6.27.936-6.37 3.11-.05 1.072 1.152 1.315 1.378 2.935.253 1.821-1.125 2.506-.69 3.8.428 1.27 1.873.964 3.1 2.59 1.086 1.441 1.33 3.508.688 3.974-.33.239-.725-.067-2.238-.519-1.388-.414-1.423-.267-3.099-.69-2.448-.62-3.672-.93-3.787-1.555-.194-1.047 2.639-2.09 2.41-2.763-.155-.456-1.617-.44-2.755-.173-1.867.438-4.388 1.909-4.476 3.8-.07 1.49 1.432 1.93 1.205 3.109-.156.808-.998 1.302-4.993 2.936-3.53 1.443-4.767 1.833-4.82 2.59-.083 1.164 2.723 1.827 2.581 2.764-.128.854-2.513.665-5.68 1.9-1.901.74-4.87 1.896-5.51 4.145-.664 2.326 1.812 3.536 1.205 5.7-.764 2.723-4.974 1.83-6.887 5.008-1.801 2.993.933 5.44-1.205 8.809-.804 1.266-1.957 2.129-3.96 3.627-2.83 2.117-3.388 1.72-3.96 2.764-1.5 2.731 2.11 5.84.517 8.635-.746 1.308-2.387 2.122-3.1 1.727-.632-.35-.282-1.511-.516-3.454-.071-.591-.592-4.918-2.41-5.527-2.166-.725-4.792 4.287-7.06 3.455-1.148-.422-.92-1.873-2.066-2.246-1.783-.58-4.7 2.166-5.854 5.182-.206.539-1.895 5.125.517 7.08 1.602 1.3 4.299.86 5.854-.172.987-.655.845-1.104 2.238-2.245.797-.652 2.922-2.393 4.132-1.727.885.486.997 2.102.861 3.109-.322 2.384-2.338 3.579-1.894 4.318.362.6 1.759-.083 2.41.69.552.654-.107 1.543 0 2.764.079.89.523 1.5 3.444 4.145 4.054 3.67 4.83 3.976 5.51 4.146 1.81.45 2.152-.257 3.443.345 2.522 1.176 2.71 4.573 3.788 4.49 1.038-.079 1.281-3.261 2.238-3.281.88-.019.947 2.675 2.41 3.109 1.378.408 2.249-1.705 5.165-2.246.239-.044 2.699-.477 3.272.519.597 1.038-1.398 2.695-.861 3.454.468.661 2.705.424 3.96-.863 1.25-1.284.63-2.695 1.721-3.455.41-.285 1.263-.62 4.305.518 3.488 1.306 3.68 2.241 6.026 3.109 3.784 1.4 5.117-.356 7.403 1.21 1.873 1.282 3.114 3.924 2.755 6.217-.54 3.44-4.486 4.848-3.96 6.045.295.672 1.918.62 5.165.518 2.339-.074 3.528-.123 4.476-.69 1.68-1.007 1.414-2.25 2.927-2.937 1.762-.799 4.292-.098 4.649 1.036.434 1.384-2.481 3.046-2.066 3.8.352.64 2.468-.509 5.853-.518 1.505-.004 4.232.023 6.543 1.727.87.642 1.441 1.407 2.583 2.936 1.52 2.038 2.28 3.056 2.41 4.318.169 1.638-.654 2.904-2.066 5.009-1.215 1.81-2.161 2.738-4.305 5.009-2.647 2.805-3.97 4.207-5.337 5.872-2.44 2.973-3.66 4.459-4.304 6.39-.924 2.772.005 3.285-1.033 6.91-.698 2.437-1.12 2.208-2.238 5.526-1.306 3.87-.808 4.405-1.894 5.7-1.676 1.998-3.581 1.587-4.304 3.454-.364.94.07 1.168.172 3.627.1 2.446.168 4.09-.689 5.527-1.138 1.91-2.596 1.254-3.615 3.109-1.126 2.048.227 3.622-1.033 5.009-1.094 1.203-2.719.683-3.1 1.727-.344.943.926 1.524.862 3.109-.041.994-.562 1.267-1.378 2.936-.528 1.08-.521 1.398-1.205 3.454-.813 2.445-1.229 3.694-1.894 5.01-1.733 3.425-3.062 3.147-3.271 5.008-.258 2.293 1.742 2.85 1.722 5.872-.01 1.371-.422 1.305-.861 3.973-.397 2.41-.6 3.636-.172 4.836.455 1.28 1.464 2.079 4.82 3.8 5.788 2.968 8.344 3.444 8.264 4.145-.095.841-3.97 1.89-7.403.69-2.442-.853-2.877-2.222-5.165-2.418-2.376-.202-2.944 1.187-4.649.691-2.11-.612-1.77-2.896-4.304-4.663-2.197-1.531-3.093-.262-5.854-1.727-2.325-1.234-3.626-3.162-5.337-5.7-1.304-1.933-1.956-2.9-2.238-4.145-.738-3.255 1.05-4.907-.173-7.081-.828-1.473-1.801-.987-2.754-2.591-1.212-2.04.062-3.336-.861-5.872-.833-2.29-2.216-2.181-3.1-4.146-1.2-2.674.557-4.668 1.034-7.945.975-6.7-5.006-7.774-4.82-15.198.084-3.433 1.503-8.825 2.582-12.09.467-1.416 1.033-2.92.516-4.664-.606-2.049-2.179-2.645-4.648-5.181-1.686-1.732-1.362-1.874-3.96-5.182-4.21-5.36-5.119-5.062-6.543-7.6-2.617-4.663-1.807-9.7-1.721-10.19.765-4.383 3.495-7.377 8.264-12.608 4.497-4.933 7.343-6.692 6.887-9.326-.319-1.839-2.078-3.138-3.444-4.146-2.427-1.792-4.997-2.27-6.198-2.418-3.9-.48-5.488 1.044-6.887-.172-1.486-1.294-.402-3.633-2.066-4.837-.962-.696-1.928-.35-3.444-.345-3.908.015-7.089-2.245-8.264-3.282-1.611-1.421-2.416-4.019-3.96-9.154-.98-3.263-1.122-4.374-2.41-9.327-2.428-9.342-3.086-9.868-3.443-9.844-.658.044-1.11 2.012-1.205 3.281-.124 1.642.318 2.577 1.55 6.909.769 2.707.756 2.905.688 2.936-.327.148-2.653-3.207-4.132-7.427-1.334-3.806-.768-4.861-2.238-6.563-1.812-2.096-3.292-1.213-5.338-3.282-2.594-2.623-2.722-6.581-2.754-7.599-.128-3.956 1.64-5.08.688-7.772-.679-1.922-1.729-1.773-3.271-3.973-2.362-3.37-1.215-5.596-2.755-10.017-.31-.889-1.928-3.242-5.165-7.945-3.316-4.82-5.144-7.217-8.092-8.982-1.124-.672-2.47-1.288-4.132-1.209-.51.025-2.51.12-3.788 1.555-1.172 1.317-.487 2.362-1.55 3.8-.995 1.348-1.961.921-4.303 2.245-2.627 1.484-2.351 2.551-5.165 4.318-1.716 1.077-4.389 2.294-4.821 1.727-.472-.618 1.35-3.845 4.304-5.354 1.448-.74 2.702-.828 3.099-1.9.354-.958-.221-2.037-.516-2.59-.73-1.37-1.882-2.051-2.239-2.246-2.543-1.395-4.557.022-5.337-1.036-.752-1.021.195-3.59 1.894-4.836 1.708-1.253 3.15-.417 4.304-1.728.836-.95 1.275-2.751.345-3.972-1.035-1.358-3.287-1.372-4.132-.518-.738.745-.278 2.021-.862 2.245-.505.194-1.305-.59-1.721-1.209-1.03-1.533-1.047-4.052 0-4.664.949-.554 1.897.972 4.132.864 1.309-.063 3.12-.69 3.443-1.9.362-1.355-1.283-2.92-2.41-3.627-1.644-1.032-2.47-.419-3.616-1.381C.95 43.29.27 40.83 1.123 39.438c.831-1.356 2.47-.642 4.477-2.418.538-.477.438-.545 1.894-2.591 2.876-4.044 3.63-4.291 4.132-4.318 1.183-.063 1.385 1.081 2.582 1.036 1.99-.074 2.702-3.279 4.132-3.109 1.008.12.813 1.732 2.41 2.591 1.546.832 2.9-.046 3.616.864.56.711-.146 1.406.344 2.245.856 1.464 3.625.412 4.477 1.727.754 1.165-1.029 2.587-.345 4.146.628 1.427 3.023 2.279 4.821 1.727 2.03-.623 1.938-2.615 4.132-3.627 1.6-.739 2.092.115 4.994 0 4.847-.193 6.457-2.694 9.125-1.555 1.593.682 1.58 1.815 2.926 1.9 2.247.142 3.668-2.93 4.821-2.418.646.286.773 1.501.689 2.245-.22 1.941-2.125 2.844-1.894 3.282.299.568 3.318-1.283 7.231-1.036.274.017 4.704.337 5.337 2.418.397 1.303-.97 2.39-.516 2.936.612.735 3.988-.165 4.82-2.246.703-1.753-1.044-2.741-.516-4.317.704-2.102 4.263-1.694 10.503-4.663 2.952-1.406 3.4-2.09 3.615-2.591 1.113-2.601-2.081-4.91-1.033-7.427.848-2.036 4.081-3.269 6.026-2.419 1.858.813 1.334 2.998 3.443 4.319 1.878 1.175 4.963 1.117 6.198-.346 2.017-2.388-1.46-7.854-.172-8.636zm395.89 252.538c1.713.016 3.073 1.606 3.051 3.021-.033 2.064-3.002 3.812-4.76 2.77-1.105-.655-1.73-2.413-1.099-3.903.485-1.144 1.613-1.9 2.807-1.888zm40.125-8.542l.044.002c.521.073.773 1.774.771 2.984-.004 2.53-1.113 5.41-3.417 7.406-1.227 1.063-2.598 1.533-5.29 2.432-.724.24-7.903 2.61-8.378 1.547-.311-.7 2.21-3.033 5.18-4.2 3.146-1.236 4.854-.402 6.614-2.1.407-.394.933-1.441 1.984-3.537l.146-.293c1.522-3.06 1.928-4.303 2.39-4.24zm-32.28-47.57c.927-.236 2.043 1.303 2.86 2.43 1.03 1.422 2.707 3.735 2.403 6.594-.23 2.159-1.368 2.565-1.144 4.165.223 1.597 1.52 2.372 3.432 3.934 3.76 3.07 7.112 5.807 7.209 8.908.037 1.209-.465 1.014-1.602 4.975 0 0-.726 2.526-1.144 4.975-1.223 7.144 1.173 9.7-.801 12.032-1.398 1.65-3.818 1.81-6.18 1.966-2.86.19-5.69-.536-7.207-.925-2.905-.745-3.318-1.283-4.348-.925-2.321.805-1.74 4.066-4.119 5.206-1.966.941-4.436-.29-6.407-1.273-2.68-1.337-2.597-2.252-5.607-3.933-1.941-1.085-3.723-2.08-6.064-2.083-2.66-.003-2.934 1.279-5.606 1.273-3.201-.008-3.609-1.848-5.836-1.504-2.95.455-3.031 3.806-6.75 5.09-2.275.785-5.046.5-5.493-.578-.39-.94 1.323-1.683 2.289-3.934 1.115-2.6-.07-4.169-.801-10.412-.432-3.686-.648-5.529-.229-7.404.505-2.264 1.182-2.427 4.348-7.867 2.938-5.05 3.197-6.357 4.806-6.827 2.484-.724 5.054 1.465 5.72.58.57-.757-1.112-2.604-.457-3.356.338-.389 1.093-.244 2.288 0 2.41.492 3.277 1.274 3.661.926.61-.551-1.404-2.65-.686-4.859.247-.76.9-1.788 1.83-1.967 1.07-.207 1.6.885 4.005 2.082 1.433.714 2.472 1.23 3.09.81 1.071-.73-.346-3.448.915-4.512.769-.649 1.56.138 2.86-.578 1.35-.743 1.448-2.116 2.174-2.083.66.03.677 1.166 1.602 2.083 1.756 1.74 4.647.57 5.034 1.504.46 1.106-3.552 2.889-3.203 4.627.29 1.445 3.447 2.155 5.72 1.967.984-.081 2.857-.236 4.12-1.62.78-.855.748-1.544 1.716-5.437.84-3.382 1.13-3.93 1.602-4.05zm37.948 42.543c1.59-1.08 4.096-1.46 4.751-.609.662.861-.69 2.828-1.98 3.902-1.527 1.272-4.077 2.221-4.883 1.464-.837-.786.17-3.438 2.112-4.757zM347.039 12.696c1.823-1.156 2.489.098 9.828 0 3.07-.04 4.023-.275 4.827.519 1.87 1.842-.147 6.19 1.035 6.737.65.301 1.307-.995 3.356-1.935.322-.148 2.918-1.298 5.782-.657 2.231.5 2.285 1.564 5.69 2.592.976.294 1.337.317 2.241.69 1.986.82 2.373 1.59 3.621 2.246 2.476 1.302 3.62-.32 6.725.691 2.198.716 3.623 2.18 4.137 2.765 2.405 2.727 1.335 4.848 3.449 6.392 1.058.772 2.43.86 5.173 1.036 3.5.224 4.619-.48 6.034.518 1.288.909 1.04 1.97 2.414 2.591.935.423 1.273.035 3.621 0 2.639-.038 3.103.44 4.655 0 .895-.253 1.884-.533 2.414-1.382 1.023-1.634-.877-3.42 0-4.664.864-1.225 3.889-1.182 5.69 0 .85.558.95 1.055 1.897 1.382 1.49.515 2.274-.362 3.104.172 1.166.752.24 2.883 1.379 3.629.84.55 1.557-.47 3.276-.173 1.762.305 2.161 1.575 3.276 1.381.987-.17 1.18-1.255 2.068-2.245 1.134-1.26 3.07-1.491 6.898-1.9 4.96-.53 7.468-.766 8.793.691.659.724.705 1.445 1.724 2.073.889.547 2.383.94 3.449.345 1.684-.94.61-3.406 2.069-4.837 1.706-1.673 5.428-.51 9.655.864 5.243 1.703 5.208 2.68 9.31 3.8 5.325 1.454 8.93.779 9.14 1.901.142.767-1.382 1.94-2.932 2.246-2.7.531-4.955-1.677-5.345-1.21-.506.606 3.328 4.265 2.759 5.01-.516.674-4.138-1.683-4.828-.864-.645.766 2.091 3.345 1.38 4.492-.943 1.517-6.761-1.343-8.104.518-.736 1.02.61 2.438-.172 3.455-1.276 1.656-6.059-.52-6.553.518-.206.434.533 1.011 1.38 2.246 1.333 1.945 1.24 3.056 2.069 5.183 1.713 4.398 4.344 5.39 3.793 6.564-.6 1.277-4.201 1.15-6.897.173-4.084-1.481-6.423-5.037-7.069-6.046-2.072-3.238-2.579-6.467-3.793-6.392-.628.038-.677.911-1.725 1.382-1.345.604-2.363-.342-3.965-.519-3.045-.334-6.684 2.283-7.242 5.01-.314 1.535.541 2.151 0 2.937-1.343 1.952-7.196-.993-8.449.864-.438.65-.087 1.552.518 3.11.372.958 1.588 4.089 4.31 5.01 1.475.498 1.95-.14 3.621 0 3.955.33 8.006 4.46 7.414 6.909-.535 2.214-4.576 1.845-5.517 4.837-.58 1.844.414 3.698-.173 3.973-.692.325-2.155-2.223-2.93-1.9-.652.271-.358 2.372-.173 3.628.586 3.997.901 6.142 2.586 7.774 2.158 2.09 4.57 1.406 5 2.937.375 1.328-.998 3.414-2.759 3.973-2.164.686-4.661-1.04-9.655-4.491-1.609-1.113-2.558-1.88-4.31-2.419-1.631-.503-4.77-1.06-5.518.172-.76 1.253 1.157 4.007 2.931 5.529 1.263 1.082 2.913 1.936 5.518 3.282 1.806.934 2.61 1.254 2.586 1.727-.063 1.199-5.314 1.176-5.518 2.591-.117.82 1.557 1.408 5.69 4.147 3.763 2.491 5.056 3.78 5 5.182-.026.68-.341.664-.517 1.555-.486 2.467 1.69 3.803 1.552 5.528-.171 2.141-3.834 3.945-6.897 4.492-6.333 1.13-9.852-3.157-12.07-1.383-2.12 1.697-.874 7.195.346 10.193 1.837 4.515 4.29 5.013 4.138 7.946-.144 2.752-2.48 5.708-5.173 6.738-2.028.775-3.24.068-3.966 1.036-1.033 1.379.406 4.18 1.897 7.083 1.614 3.142 2.422 3.552 3.104 5.874.248.844 1.302 4.433 0 5.355-1.247.88-4.537-.764-6.208-3.283-1.558-2.349-.453-3.566-1.896-6.737-1.249-2.745-2.31-2.346-4.656-5.874-1.197-1.801-2.896-4.357-3.275-7.773-.431-3.877 1.316-4.539.517-6.91-1.012-3.003-3.99-2.464-9.656-6.738-4.025-3.036-5.02-5.193-7.07-4.836-2 .348-3.144 2.771-3.792 4.145-1.957 4.147-.086 5.696-1.38 10.71-1.246 4.833-3.372 4.898-3.62 9.157-.155 2.65.58 4.122-.518 5.355-1.19 1.336-3.819 1.593-5.345.518-1.69-1.19-1.212-3.44-1.724-6.91-.102-.694-1.529-9.633-7.414-14.165-3.154-2.43-4.18-.968-7.93-3.974-3.122-2.5-3.965-4.756-6.38-4.836-2.24-.075-3.125 1.809-5 1.208-1.84-.587-2.075-2.744-3.622-2.763-1.09-.014-1.191 1.054-2.586 1.382-1.751.412-2.406-1.079-4.828-1.382-2.556-.32-3.248 1.16-4.828.518-2.254-.918-2.455-4.59-3.104-4.491-.518.077-.024 2.371-.861 4.837-1.125 3.31-4.061 5.197-6.725 6.91-3.968 2.55-4.244 1.366-6.551 3.282-3.745 3.108-3.2 6.378-6.725 7.946-.31.139-3.114 1.386-4.655.173-2.163-1.7 1.182-5.865-.69-10.02-1.941-4.31-6.897-2.84-10-8.119-.518-.88-.067-.387-2.415-6.737-2.025-5.477-2.761-6.929-3.62-6.91-.96.02-1.633 1.867-1.897 2.591-.237.65-1.067 3.174.173 6.91.693 2.09 2.138 3.956 5 7.602 1.504 1.915 1.597 1.915 3.966 4.837 3.29 4.06 4.945 6.114 5.345 7.255 1.172 3.347.158 5.424 1.896 6.737 1.133.855 2.596.752 3.448.691 3.447-.245 4.758-2.759 6.035-2.246 1.532.616 1.332 4.911.862 7.601-.401 2.301-1.458 8.352-6.379 11.92-3.454 2.504-5.264 1.213-11.38 4.837-1.827 1.083-3.062 2.025-4.483 3.11-4.455 3.4-6.683 5.1-7.242 7.601-.558 2.5 1.103 2.864 1.552 6.737.422 3.632-.38 9.001-3.793 12.092-2.852 2.584-5.384 1.634-6.552 4.146-.715 1.54-.305 3.33.517 6.91.874 3.81 1.432 3.645 1.725 5.874.093.716.874 6.66-2.414 9.501-1.944 1.68-3.864 1.027-5 2.937-.752 1.261-.37 2.313-.345 4.146.046 3.422-1.175 7.588-3.794 10.193-2.473 2.46-6.54 3.87-8.276 2.59-.548-.404-.565-.856-1.552-1.727-1.251-1.103-2.508-1.507-3.104-1.728-3.374-1.247-5.9-4.134-6.207-4.49-2.265-2.639-2.692-5.71-2.93-7.43-.491-3.53.504-4.098.861-9.5.362-5.464.59-8.921-1.551-11.057-2.045-2.038-4.706-1.332-5.518-3.454-.588-1.54.65-2.339.173-4.837-.354-1.854-1.177-2.155-1.725-3.973-.606-2.016-.211-3.686.173-5.529 1.371-6.585 2.057-9.878 1.724-12.438-.592-4.554-2.93-3.721-3.448-8.292-.552-4.866 1.443-11.564 1.551-11.92.535-1.758.962-2.681.518-3.8-.945-2.378-4.254-1.694-5.863-4.491-.982-1.71-.356-3.024-1.723-4.147-.98-.804-2.177-.85-2.76-.864-1.624-.04-3.018.58-6.551 3.11-4.538 3.249-5.12 4.288-6.725 4.146-1.553-.138-1.862-1.19-4.138-1.382-1.713-.145-2.146.398-3.448.173-1.679-.291-2.51-1.462-3.966-2.937-3.884-3.936-5.179-2.91-6.896-5.528-1.946-2.965-1.666-6.383-1.552-7.774.316-3.865 1.88-3.716 2.758-8.637.653-3.66 0-4.94 1.38-7.083.537-.835.657-.675 3.448-3.455 1.793-1.786 3.08-3.185 3.965-4.146 2.2-2.388 3.299-3.583 3.794-4.319 2.737-4.073 1.308-6.016 3.276-7.428 2.066-1.482 3.798.547 9.483-.691 2.77-.603 3.559-1.347 3.966-1.9 1.216-1.657.28-3.346 1.38-4.32.977-.867 2.265-.013 5.689.519 5.162.802 7.246-.36 8.793 1.382.948 1.068 1.012 2.456 1.035 2.937.163 3.517-3.219 5.606-2.587 6.564.552.836 3-.942 6.38-.172 1.83.416 1.833 1.1 4.31 2.246 2.928 1.352 7.436 2.48 8.45 1.036.77-1.1-1.161-2.722-.346-4.665.75-1.784 3.181-2.321 3.62-2.418 2.679-.59 3.544.945 8.795 2.073 4.586.984 6.16.292 6.724 0 1.41-.729 1.414-1.489 2.586-1.728 1.98-.402 2.809 1.594 6.035 2.419 1.99.509 4.532.48 5-.518.274-.582-.383-1.018-.862-2.591-.544-1.787-.343-3.347-.172-4.665.381-2.955 1.413-3.81.861-4.491-.646-.802-2.046.412-5.172 0-1.867-.246-2.578-.84-3.62-.346-1.142.54-.874 1.529-1.897 2.073-1.425.758-2.54-.84-5.69-1.209-2.482-.29-4.022.442-4.483-.346-.414-.707.703-1.513.345-2.418-.56-1.416-3.695-.445-4.828-2.073-.867-1.245-.102-3.35.69-4.491.917-1.323 2.175-1.793 4.31-2.592 1.064-.398 2.938-.995 5.518-1.209 3.367-.28 5.143-.429 6.38.69 1.707 1.547.623 3.914 2.24 4.838 1.367.78 3.732 0 4.139-1.21.093-.278.134-.731-.862-2.418-1.717-2.905-2.788-3.169-2.931-4.491-.138-1.264.8-1.388 1.724-3.8.536-1.402 1.49-3.891.345-5.874-.63-1.093-1.865-1.976-3.276-2.073-1.765-.122-3.66.998-3.621 1.9.049 1.172 3.332 1.189 3.62 2.764.215 1.17-1.296 2.782-2.758 2.937-.778.082-.943-.311-3.276-1.21-1.9-.73-2.08-.58-2.586-1.036-1.128-1.014-.562-2.05-1.552-3.282-.938-1.167-2.838-1.97-4.31-1.382-1.622.646-2.079 2.716-2.242 3.455-.572 2.59.842 3.359.172 5.01-.933 2.3-4.242 2.19-4.483 4.146-.126 1.026.75 1.347.518 2.418-.27 1.24-1.696 1.964-2.932 2.591-1.971 1.002-3.174.94-3.275 1.555-.117.71 1.455.953 2.069 2.418.522 1.245.253 3.137-1.035 4.147-1.383 1.084-3.619.898-4.138 0-.477-.826.792-1.737.345-2.937-.444-1.191-1.868-.759-2.759-2.073-.966-1.423.252-2.596-.862-4.492-.496-.843-.953-.979-1.035-1.727-.123-1.127.816-1.705.517-2.419-.261-.627-1.055-.35-1.896-1.036-1.179-.963-.578-2.29-1.551-3.11-.738-.62-1.482-.197-3.621-.172-3.315.037-4.816-.942-5.173-.346-.21.351.22.843 2.586 3.973 2.568 3.399 2.474 3.367 2.931 3.801 1.442 1.368 2.775 2.058 2.587 2.764-.094.35-.536.606-.862.69-.671.176-1.02-.327-1.38-.172-.68.293.195 2.254-.69 3.455-.852 1.158-3.029 1.19-3.275.691-.191-.385.884-.86 1.206-2.073.12-.454.233-1.372-.862-3.282-1.1-1.921-2.852-4.977-5.517-5.183-2.092-.161-2.301 1.622-5.517 1.9-1.688.147-2.395-.277-3.621.346-.188.096-1.74.913-2.242 2.591-.507 1.693.597 2.45 0 3.628-.598 1.179-1.86.723-3.276 2.073-1.242 1.183-.777 2.014-1.897 3.628-1.346 1.94-3.376 2.696-4.483 3.109-1.54.576-3.897 1.454-6.206.346-.197-.094-2.807-1.388-2.932-3.455-.109-1.816 1.809-2.43 1.724-4.492-.068-1.676-1.375-2.219-1.034-3.11.612-1.597 5.28-1.06 5.345-1.727.046-.478-2.358-.762-2.414-1.555-.05-.697 1.758-1.213 4.31-2.418 3.284-1.55 5.54-2.615 5.518-3.8-.02-1.113-2.03-1.333-5.69-4.492-1.418-1.224-2.018-1.97-2.069-2.937-.07-1.313.886-2.774 1.724-2.764 1.169.014 1.28 2.875 3.104 3.282.787.176 1.696-.15 2.241-.69 1.3-1.288.184-3.436 1.207-4.147.765-.53 1.524.576 3.104.519 2.378-.087 2.628-2.664 6.207-4.146 1.852-.767 3.62-.864 3.62-.864 2.179-.12 3.152.537 3.622 0 .653-.748-.969-2.326-1.552-5.7-.23-1.328-.665-3.846.69-5.01.759-.654 2.048-.854 2.586-.346.573.541-.18 1.442.173 2.936.242 1.029.745 1.223 2.24 3.11 1.878 2.368 1.489 2.57 2.415 3.282 1.188.912 3.235 1.66 5 1.037 1.687-.595 1.452-1.856 3.793-3.11 1.503-.805 2.356-.69 2.587-1.382.396-1.193-1.884-2.313-1.552-3.627.343-1.362 3.116-1.459 3.104-2.246-.014-.836-3.148-1.262-3.104-1.9.04-.607 2.883-.37 3.448-1.728.288-.693-.136-1.517-.69-2.591-.642-1.248-1.113-1.507-1.724-2.419-1.522-2.27-.672-3.744-1.724-4.491-1.43-1.017-5.1.22-5.69 2.246-.701 2.408 3.52 3.97 3.448 7.946-.034 1.906-1.055 4.325-2.758 4.665-1.281.255-2.82-.691-3.449-1.9-.786-1.516.215-2.75-.517-3.456-.733-.706-1.981.296-5 .69-2.541.334-4.423-.015-6.207-.345-1.847-.34-2.83-.523-2.931-1.036-.087-.441.508-.985 6.034-3.973 2.637-1.426 3.445-1.812 4.828-2.764.275-.19 1.811-1.255 3.448-2.764 5.01-4.617 4.14-7.096 7.415-8.984 3.002-1.73 7.558-1.851 10 .174 1.455 1.206 1.232 2.406 2.93 3.282 2.241 1.154 3.794-.331 5.691.863 1.913 1.205 2.468 4.058 1.897 4.492-.581.44-2.161-1.74-3.794-1.209-.906.295-1.59 1.35-1.552 2.246.094 2.186 4.528 4.412 6.553 3.11 1.438-.927 1.521-3.544 1.551-4.493.061-1.93-.538-2.6 0-3.8.454-1.01 1.562-2.056 2.759-2.073 1.901-.026 2.831 2.56 3.794 2.246 1.146-.375.15-4.155 1.724-5.01 1.172-.637 2.367 1.112 4.31.691 1.565-.34 1.715-1.677 3.449-3.282 2.145-1.988 5.286-3.06 7.93-2.937 2.333.108 2.37 1.056 6.552 1.728 3.372.54 4.219.064 4.656-.346.936-.879 1.186-2.573.69-3.8-.626-1.546-2.13-1.598-2.242-2.764-.103-1.077 1.044-2.42 2.069-2.42 1.508.001 3.066 2.91 3.276 5.529.196 2.442-.845 3.797-.172 4.319.767.595 2.95-.52 4.31-1.9 1.203-1.221 1.086-1.962 1.897-2.246 1.843-.646 3.67 2.755 5 2.245 1.458-.558 1.96-5.67-.517-8.464-1.88-2.121-4.717-2.052-4.655-2.592.069-.603 3.57-.237 9.31-.69 4.628-.366 7.006-.971 7.931.345.875 1.243-.356 3.052.69 3.973.936.824 2.774.131 3.104 0 2.936-1.167 2.323-3.94 4.828-5.528zm-54.352 202.512c1.232-2.772 4.344-4.752 5.762-3.882 1.59.975.903 5.448.467 8.294-.454 2.955-1.388 9.044-5.762 12.707-.945.792-3.098 2.595-4.515 1.764-1.699-.994-1.952-5.543-.311-8.294 1.02-1.713 1.91-1.276 2.958-3 1.613-2.655.124-4.713 1.401-7.589zm239.156-1.448c.626-.618 3.026.251 4.4 1.799 1.676 1.884 1.893 4.847 1.068 5.267-.793.403-2.574-1.522-3.068-2.055-1.479-1.599-3.124-4.298-2.4-5.011zm-90.603-11.653c.277-.964 3.765-1.122 6.67.254 1.925.912 1.937 1.712 4.297 2.795 1.829.84 4.441 1.562 4.974.636.387-.674-.563-1.801-.226-2.16.422-.451 2.567.631 2.6 1.779.037 1.29-2.605 2.597-4.636 3.048-4.601 1.024-8.554-1.792-10.852-3.43-1.291-.92-3.042-2.168-2.827-2.922zm23.209 3.682c-.1-1.14 1.526-2.214 2.48-1.953 1.206.33 1.598 2.864.663 3.455-.822.519-3.033-.227-3.143-1.502zm24.936-17.775c1.43-.804 5.09 4.607 7.308 3.703 1.268-.517.76-2.566 2.088-3.142 1.304-.567 2.711 1.012 6.612 3.59 2.647 1.751 5.336 3.442 8.003 5.163.972.627 2.572 1.657 3.132 3.479.243.787.061.977.232 1.908.532 2.894 2.902 4.435 2.668 4.713-.252.3-2.856-1.698-6.032-3.367-3.554-1.868-7.213-3.79-11.6-3.59-3.383.154-4.677 1.456-7.075.448-1.767-.743-3.426-2.443-3.132-3.703.311-1.334 2.63-1.394 2.668-2.357.05-1.283-4.05-1.477-5.104-4.152-.388-.987-.378-2.35.232-2.693zm-72.661-7.122c2.445-1.344 7.278 2.351 10.079 6.202 1.8 2.477 1.191 2.86 3.247 5.487 2.138 2.732 3.457 3.164 4.368 5.487.825 2.104 1.018 4.997 0 5.606-1.182.707-3.793-1.791-5.151-3.46-2.811-3.45-1.767-5.2-4.256-8.11-1.78-2.08-2.449-1.344-6.272-4.89-2.688-2.493-3.388-3.815-3.135-4.891.214-.918 1.063-1.4 1.12-1.431zm104.187 12.172c.534-.524 1.87-.075 2.093 0 1.49.502 2.876 1.96 2.484 2.747-.354.714-2.195.939-3.4.239-1.236-.72-1.775-2.399-1.177-2.986zm-46.839-7.533c1.23-.104 3.5-.046 3.79.699.284.735-1.719 1.205-2.667 3.143-.894 1.826-.025 3.274-.842 3.608-.94.385-2.254-1.471-3.509-1.164-1.757.43-1.21 4.567-2.105 4.656-.692.069-2.054-2.311-1.824-4.772.052-.555.242-2.266 1.824-3.841.196-.195 2.127-2.057 5.333-2.329zm-23.261-12.06c1.512-.658 3.998.555 4.528 2.12.275.813-.198 1.074 0 2.119.195 1.03.797 1.529 2.603 3.346 2.597 2.613 2.883 3.122 2.83 3.682-.074.79-.766 1.06-1.81 2.008-2.969 2.69-2.163 4.829-4.19 5.8-1.24.595-2.751.137-5.772-.78-2.33-.708-3.997-1.214-4.528-2.566-.445-1.134.415-1.57.453-3.57.054-2.915-1.74-3.76-1.132-5.243.645-1.574 2.755-.85 4.64-2.9 1.658-1.802 1.002-3.417 2.378-4.016zm9.418-7.292c1.247-.96 4.428 1.553 4.204 2.963-.185 1.171-2.874 2.56-4.204 1.03-.978-1.126-.814-3.367 0-3.993zm9.248-.212c2.61-.03 5.927 1.06 5.967 2.44.034 1.152-2.222 2.391-4.302 2.439-3.118.07-5.932-2.534-5.413-3.77.449-1.07 3.388-1.105 3.748-1.11zm-327.546-.727c.535-1.44 2.475-2.09 3.176-1.493.6.51.232 1.883.16 2.156-.312 1.161-1.294 2.673-2.224 2.488-.891-.176-1.585-1.879-1.112-3.151zm321.856-10c.6-1.001 1.832-1.809 2.875-1.341 1.33.596 1.768 3.006 1.216 4.692-.516 1.576-1.996 2.827-3.096 2.414-1.435-.538-2.127-3.871-.995-5.766zM101.43 128.417c.836-.2 3.896-.931 6.256 1.215 1.749 1.59 2.654 4.344 2.198 4.86-.163.185-.493.077-3.382-1.62-2.832-1.663-3.01-1.85-3.55-1.823-1.628.08-1.893 1.86-4.227 3.242-1.776 1.05-4.22 1.558-4.565.81-.491-1.068 2.856-5.63 7.27-6.684zm14.258-.911c2.862-.297 3.404-.848 4.224-.456 1.036.495 1.42 1.968.769 2.58-.406.382-1.012.241-2.497.304-3.32.141-4.36 1.017-5.183.455-.753-.513-.728-1.82 0-2.428.477-.399.997-.28 2.687-.455zM264 100.693c.03-1.116 2.7-2.307 4.516-1.665.885.313 1.75 1.124 1.571 1.967-.212 1.005-1.79 1.514-2.945 1.513-1.566 0-3.165-.94-3.142-1.815zm210.256-4.512c1.235-.476 4.049-1.562 4.711-.626.518.732-.495 2.395-.942 3.128-.39.64-1.45 2.38-3.533 3.254-2.64 1.106-6.073.471-6.36-.751-.296-1.257 2.724-3.18 3.67-3.781.286-.181 1.167-.727 2.454-1.224zm.44-10.757c.97 0 1.613 1.885 1.815 2.795.469 2.107-.212 4.483-.847 4.526-.19.013-.301-.187-.968-1.33-1.55-2.657-1.69-2.844-1.696-3.329-.014-1.23.849-2.663 1.696-2.662zM464.8 72.03c.724-.354 1.78 2.464 4.443 4.955 3.216 3.007 6.293 3.214 6.2 4.494-.056.756-1.185 1.426-2.17 1.498-1.618.118-1.964-1.442-5.683-4.955-1.71-1.616-2.868-2.45-3.1-4.148-.079-.585-.1-1.644.31-1.844zm-261.875-9.427c.3-1.12 2.216-1.753 3.727-1.548 1.583.216 3.295 1.429 3.541 3.094.148.995-.286 1.76-.931 2.9-.876 1.547-2.841 4.147-4.1 3.674-.733-.275-.988-1.5-1.119-2.127-.252-1.21.13-1.53 0-2.706-.212-1.926-1.373-2.333-1.118-3.287zm10.973-7.556c2.034-.608 4.377 1.005 4.66 2.547.252 1.366-1.223 2.056-.832 3.186.517 1.494 3.519 1.505 3.496 2.229-.01.313-.576.475-2.33 1.115-2.434.887-3.66 1.339-4.162 1.752-1.318 1.085-1.192 2.09-2.33 2.388-.906.238-2.025-.125-2.164-.636-.168-.62 1.242-.96 1.498-2.23.193-.96-.511-1.254-.333-2.23.218-1.19 1.343-1.162 1.665-2.23.465-1.542-1.602-2.548-1.165-4.14.338-1.232 1.877-1.716 1.997-1.751zM123.32 8.587c6.517-.602 11.828 4.933 14.326 7.535 2.616 2.727 4.706 5.937 3.99 6.68-.705.729-3.524-1.536-5.078-.514-1.82 1.195-.022 5.654-1.27 6.165-1.114.455-2.625-3.063-5.44-3.083-1.148-.008-1.352.574-4.715 2.226-2.726 1.34-4.131 2.014-4.714 1.542-.663-.538-.246-2.54.906-3.94 2.444-2.968 7.352-2.203 7.616-3.767.165-.971-1.714-1.352-2.175-3.425-.338-1.515.505-2.035 0-2.911-.616-1.065-2.145-.781-5.44-1.712-2.052-.58-3.916-1.106-3.99-1.884-.099-1.031 2.936-2.63 5.984-2.911zm-37.711 3.618l.17.014c1.282.154 1.313 1.299 3.039 2.15.807.399 1.305.397 5.573.497 2.724.063 4.099.107 4.73.662 1.13.995 1.454 3.038.675 3.806-.739.727-2.008-.145-4.73-.166-.5-.004-2.602.01-4.728.827-3.525 1.357-5.713 4.388-6.249 5.13-1.215 1.682-1.43 2.689-2.871 3.475-1.359.74-3.17.935-3.546.33-.583-.934 2.466-3.432 2.026-3.97-.469-.576-4.228 1.925-4.729 1.323-.423-.51 1.878-2.755 1.52-3.144-.288-.314-1.994.915-5.067 2.316-2.162.987-3.599 1.628-4.053 1.159-.506-.524.395-2.23 1.182-3.31 1.342-1.838 2.583-2.164 6.25-4.302 3.853-2.246 5.78-3.37 7.093-4.467 1.659-1.387 2.57-2.475 3.884-2.316zm19.3-6.87c.466.523.034 1.508-.386 2.035-.61.765-1.946 1.502-3.091 1.017-.86-.364-1.379-1.317-1.16-2.035.44-1.438 3.842-1.91 4.638-1.017zM90.446 3.447c-.024-1.855 3.154-3.61 5.828-3.435 1.937.128 4.005 1.295 3.948 2.223-.029.466-.577.617-2.444 1.616-3.294 1.764-3.643 2.397-4.7 2.223-1.276-.21-2.617-1.432-2.632-2.627z"/>
        <path stroke="#63BA97" stroke-dasharray="4" stroke-linecap="round" stroke-linejoin="round" d="M146 158.5L480 158.5M102 119h44v39M271 122h-17v35M467 96h13v63M194 81h15v75M353 202h11v-45M127 199h39v-40M219.5 220L219.5 160M411 219h-15v-58"/>
        <path fill="#63BA97" fill-rule="nonzero" d="M203.564 559v-3.182h1.676l1.658 3.182h1.729l-1.846-3.41c1.008-.363 1.594-1.295 1.594-2.414 0-1.617-1.096-2.631-2.924-2.631h-3.398V559h1.511zm1.747-4.342h-1.747v-2.888h1.711c.961 0 1.547.55 1.547 1.44 0 .915-.55 1.448-1.511 1.448zm6.955 4.436c1.494 0 2.63-.815 2.818-1.998h-1.371c-.17.527-.715.861-1.418.861-.979 0-1.635-.686-1.635-1.717v-.088h4.483v-.48c0-1.94-1.137-3.164-2.93-3.164-1.834 0-3.012 1.3-3.012 3.316s1.172 3.27 3.065 3.27zm1.441-3.914h-3.035c.064-.914.685-1.535 1.54-1.535.868 0 1.466.609 1.495 1.535zm4.84 3.914c1.605 0 2.719-.803 2.719-1.992 0-.944-.493-1.43-1.782-1.729l-1.125-.258c-.632-.146-.931-.392-.931-.75 0-.469.445-.78 1.125-.78.697 0 1.16.34 1.207.88h1.36c-.03-1.16-1.061-1.957-2.538-1.957-1.541 0-2.572.78-2.572 1.94 0 .907.597 1.511 1.77 1.786l1.16.282c.638.152.873.351.873.726 0 .475-.463.774-1.208.774-.761 0-1.236-.323-1.324-.903h-1.435c.093 1.19 1.13 1.98 2.7 1.98zm6.486 0c1.494 0 2.631-.815 2.819-1.998h-1.372c-.17.527-.714.861-1.417.861-.979 0-1.635-.686-1.635-1.717v-.088h4.482v-.48c0-1.94-1.137-3.164-2.93-3.164-1.834 0-3.011 1.3-3.011 3.316s1.172 3.27 3.064 3.27zm1.442-3.914h-3.036c.065-.914.686-1.535 1.541-1.535.868 0 1.465.609 1.495 1.535zm4.3 3.89c.85 0 1.641-.416 1.993-1.101h.035V559h1.4v-4.389c0-1.271-1.037-2.103-2.637-2.103-1.505 0-2.595.838-2.63 2.01h1.347c.1-.516.574-.862 1.237-.862.785 0 1.242.37 1.242 1.05v.468l-1.664.1c-1.612.099-2.485.75-2.485 1.892 0 1.137.903 1.904 2.162 1.904zm.428-1.119c-.68 0-1.125-.328-1.125-.844 0-.521.422-.826 1.219-.878l1.465-.094v.486c0 .78-.674 1.33-1.559 1.33zm5.684 1.049v-3.715c0-.902.515-1.459 1.37-1.459.253 0 .481.035.604.082v-1.324c-.111-.035-.275-.059-.468-.059-.756 0-1.33.434-1.536 1.184h-.029v-1.113h-1.4V559h1.459zm5.549.094c1.6 0 2.695-.92 2.818-2.32h-1.377c-.135.726-.65 1.13-1.43 1.13-.96 0-1.593-.779-1.593-2.11 0-1.288.626-2.097 1.587-2.097.82 0 1.325.492 1.43 1.166h1.377c-.1-1.318-1.148-2.355-2.824-2.355-1.852 0-3.053 1.283-3.053 3.287 0 2.045 1.207 3.299 3.065 3.299zm5.226-.094v-3.65c0-.955.557-1.594 1.483-1.594.884 0 1.335.545 1.335 1.447V559h1.46v-4.09c0-1.459-.833-2.39-2.245-2.39-.978 0-1.646.41-2.021 1.189h-.03v-3.557h-1.44V559h1.458zm10.043 0v-5.273h1.195v-1.131h-1.212v-.51c0-.504.216-.72.738-.72.176 0 .34.017.469.046v-1.06c-.217-.041-.452-.059-.71-.059-1.376 0-1.939.516-1.939 1.728v.575h-.873v1.13h.873V559h1.46zm2.977-7.219c.457 0 .82-.351.82-.802 0-.458-.363-.803-.82-.803-.452 0-.82.345-.82.803 0 .45.368.802.82.802zm.732 7.219v-6.404h-1.459V559h1.46zm4.09 2.32c1.88 0 3.07-.949 3.07-2.478v-6.246h-1.43v1.078h-.029c-.369-.71-1.101-1.149-2.015-1.149-1.63 0-2.672 1.266-2.672 3.252 0 1.957 1.06 3.2 2.642 3.2.92 0 1.67-.428 2.01-1.114h.035v1.09c0 .791-.615 1.277-1.564 1.277-.733 0-1.307-.287-1.43-.75h-1.459c.111 1.12 1.242 1.84 2.842 1.84zm0-3.521c-.961 0-1.582-.774-1.582-2.016 0-1.248.621-2.045 1.582-2.045.973 0 1.611.815 1.611 2.045s-.638 2.016-1.611 2.016zm5.818 1.201v-3.65c0-.955.557-1.594 1.483-1.594.884 0 1.336.545 1.336 1.447V559h1.459v-4.09c0-1.459-.832-2.39-2.245-2.39-.978 0-1.646.41-2.021 1.189h-.03v-3.557h-1.44V559h1.458zm7.8.03c.31 0 .608-.024.767-.06v-1.118c-.094.011-.293.029-.434.029-.527 0-.773-.252-.773-.78v-3.374h1.213v-1.131h-1.213v-1.43h-1.46v1.43h-.872v1.13h.873v3.575c0 1.236.539 1.728 1.898 1.728zm2.571-7.249c.457 0 .82-.351.82-.802 0-.458-.363-.803-.82-.803-.45 0-.82.345-.82.803 0 .45.37.802.82.802zm.733 7.219v-6.404h-1.46V559h1.46zm2.742 0v-3.674c0-.937.539-1.57 1.436-1.57.878 0 1.312.515 1.312 1.43V559h1.459v-4.102c0-1.482-.809-2.378-2.227-2.378-.984 0-1.628.41-2.01 1.189h-.029v-1.113h-1.4V559h1.459zm8.227 2.32c1.88 0 3.07-.949 3.07-2.478v-6.246h-1.43v1.078h-.03c-.368-.71-1.1-1.149-2.015-1.149-1.629 0-2.672 1.266-2.672 3.252 0 1.957 1.06 3.2 2.643 3.2.92 0 1.67-.428 2.01-1.114h.035v1.09c0 .791-.615 1.277-1.565 1.277-.732 0-1.306-.287-1.43-.75h-1.458c.111 1.12 1.242 1.84 2.842 1.84zm0-3.521c-.961 0-1.582-.774-1.582-2.016 0-1.248.62-2.045 1.582-2.045.972 0 1.61.815 1.61 2.045s-.638 2.016-1.61 2.016zm10.763 1.342c1.998 0 3.381-1.096 3.645-2.907h-1.483c-.234 1.02-1.037 1.623-2.156 1.623-1.465 0-2.39-1.189-2.39-3.087 0-1.887.931-3.082 2.384-3.082 1.096 0 1.957.697 2.156 1.757h1.489c-.188-1.816-1.682-3.04-3.645-3.04-2.402 0-3.931 1.67-3.931 4.365 0 2.712 1.517 4.37 3.931 4.37zm7.477-.047c1.898 0 3.088-1.254 3.088-3.3 0-2.026-1.202-3.286-3.088-3.286-1.875 0-3.082 1.265-3.082 3.287 0 2.045 1.195 3.299 3.082 3.299zm0-1.166c-.996 0-1.6-.785-1.6-2.127 0-1.336.604-2.127 1.6-2.127 1.002 0 1.605.785 1.605 2.127 0 1.342-.597 2.127-1.605 2.127zm7.394 1.072l2.262-6.404h-1.523l-1.512 5.033h-.03l-1.517-5.033h-1.553L317.43 559h1.6zm3.733-7.219c.457 0 .82-.351.82-.802 0-.458-.363-.803-.82-.803-.451 0-.82.345-.82.803 0 .45.369.802.82.802zm.732 7.219v-6.404h-1.459V559h1.46zm3.68.07c.937 0 1.676-.445 2.021-1.16h.03V559h1.43v-8.848h-1.46v3.522h-.035c-.346-.71-1.066-1.149-1.992-1.149-1.588 0-2.66 1.284-2.66 3.27 0 1.992 1.066 3.275 2.666 3.275zm.428-1.213c-.967 0-1.6-.796-1.6-2.056 0-1.254.633-2.063 1.6-2.063.96 0 1.6.826 1.6 2.063 0 1.242-.634 2.056-1.6 2.056zm8.255-1.576v-1.3h-3.85v1.3h3.85zm4.94 2.719v-8.455h-1.494l-2.21 1.553v1.423l2.186-1.535h.035V559h1.483zm4.94.17c2.167 0 3.45-1.676 3.45-4.494 0-1.055-.205-1.94-.603-2.631-.563-1.078-1.57-1.676-2.813-1.676-1.828 0-3.158 1.236-3.158 2.947 0 1.606 1.201 2.795 2.807 2.795 1.096 0 1.963-.556 2.29-1.382h.024c.024 2.044-.726 3.216-1.974 3.216-.739 0-1.342-.422-1.53-1.06h-1.5c.24 1.36 1.454 2.285 3.006 2.285zm.04-4.242c-.96 0-1.675-.703-1.675-1.658 0-.926.744-1.659 1.687-1.659.95 0 1.688.739 1.688 1.682 0 .932-.733 1.635-1.7 1.635z"/>
        <g transform="translate(164 382)">
            <rect width="222" height="142.783" fill="#FFF" stroke="#63BA97" rx="8"/>
            <path fill="#333" fill-rule="nonzero" d="M78.142 120.086c1.998 0 3.38-1.096 3.645-2.907h-1.483c-.234 1.02-1.037 1.623-2.156 1.623-1.465 0-2.39-1.19-2.39-3.088 0-1.886.93-3.082 2.384-3.082 1.096 0 1.957.698 2.156 1.758h1.489c-.188-1.816-1.682-3.04-3.645-3.04-2.402 0-3.932 1.67-3.932 4.364 0 2.713 1.518 4.372 3.932 4.372zm6.55-.07c.85 0 1.641-.417 1.993-1.102h.035v1.03h1.4v-4.388c0-1.271-1.037-2.103-2.636-2.103-1.506 0-2.596.838-2.631 2.01H84.2c.1-.516.574-.862 1.236-.862.785 0 1.242.37 1.242 1.049v.469l-1.664.1c-1.611.099-2.484.75-2.484 1.892 0 1.137.902 1.904 2.162 1.904zm.429-1.12c-.68 0-1.125-.328-1.125-.844 0-.521.421-.826 1.218-.879l1.465-.093v.486c0 .78-.674 1.33-1.558 1.33zm5.73 1.049v-8.848h-1.459v8.848h1.459zm4.09.094c1.6 0 2.695-.92 2.818-2.32h-1.377c-.135.726-.65 1.13-1.43 1.13-.96 0-1.593-.78-1.593-2.11 0-1.288.627-2.097 1.588-2.097.82 0 1.324.492 1.43 1.166h1.376c-.1-1.318-1.148-2.355-2.824-2.355-1.851 0-3.053 1.283-3.053 3.287 0 2.045 1.207 3.299 3.065 3.299zm5.959-.012c.972 0 1.611-.422 1.963-1.201h.035v1.119h1.4v-6.404h-1.459v3.673c0 .95-.545 1.577-1.435 1.577-.862 0-1.313-.504-1.313-1.436v-3.814h-1.459v4.107c0 1.477.873 2.379 2.268 2.379zm6.146-.082v-8.848h-1.459v8.848h1.46zm3.182.07c.85 0 1.64-.416 1.992-1.101h.035v1.03h1.4v-4.388c0-1.271-1.036-2.103-2.636-2.103-1.506 0-2.596.838-2.63 2.01h1.347c.1-.516.574-.862 1.236-.862.785 0 1.242.37 1.242 1.049v.469l-1.664.1c-1.611.099-2.484.75-2.484 1.892 0 1.137.902 1.904 2.162 1.904zm.428-1.119c-.68 0-1.125-.328-1.125-.844 0-.521.422-.826 1.218-.879l1.465-.093v.486c0 .78-.674 1.33-1.558 1.33zm6.533 1.078c.31 0 .61-.023.767-.058v-1.12c-.093.012-.293.03-.433.03-.527 0-.774-.252-.774-.78v-3.375h1.213v-1.13h-1.213v-1.43h-1.459v1.43h-.873v1.13h.873v3.575c0 1.236.54 1.728 1.899 1.728zm2.572-7.248c.457 0 .82-.351.82-.803 0-.457-.363-.802-.82-.802-.451 0-.82.345-.82.802 0 .452.369.803.82.803zm.733 7.219v-6.404h-1.46v6.404h1.46zm2.742 0v-3.674c0-.937.539-1.57 1.435-1.57.88 0 1.313.515 1.313 1.43v3.814h1.459v-4.102c0-1.482-.809-2.379-2.227-2.379-.984 0-1.629.41-2.01 1.19h-.029v-1.113h-1.4v6.404h1.459zm8.226 2.32c1.881 0 3.07-.949 3.07-2.478v-6.246h-1.43v1.078h-.028c-.37-.71-1.102-1.149-2.016-1.149-1.629 0-2.672 1.266-2.672 3.252 0 1.957 1.06 3.2 2.643 3.2.92 0 1.67-.428 2.01-1.114h.035v1.09c0 .791-.616 1.277-1.565 1.277-.732 0-1.306-.287-1.43-.75h-1.458c.11 1.12 1.242 1.84 2.841 1.84zm0-3.521c-.96 0-1.582-.774-1.582-2.016 0-1.248.621-2.045 1.582-2.045.973 0 1.612.815 1.612 2.045s-.639 2.016-1.612 2.016zm5.309 1.265c.469 0 .838-.369.838-.843 0-.475-.37-.844-.838-.844-.475 0-.844.369-.844.844 0 .474.37.843.844.843zm3.105 0c.475 0 .844-.369.844-.843 0-.475-.369-.844-.844-.844-.468 0-.843.369-.843.844 0 .474.375.843.843.843zm3.094 0c.475 0 .844-.369.844-.843 0-.475-.37-.844-.844-.844-.469 0-.838.369-.838.844 0 .474.37.843.838.843z"/>
            <g>
                <path fill="#91CEB6" d="M10.479 43.456c-.374.214-.853.1-1.086-.263-.487-.762-1.034-1.468-1.633-2.108-.667-.714-1.307-1.25-1.985-1.82-.6-.503-.908-.727-1.18-.924-.239-.173-.464-.336-.802-.629-.789-.683-2.107-1.826-2.953-3.714-.227-.507-.917-2.05-.754-4.088.166-2.076 1.113-3.49 1.678-4.334.531-.794 1.486-1.979 3.02-3.117.262-.196.485-.347.7-.49.386-.26.719-.485 1.219-.926.556-.492 1.071-1.034 1.528-1.612.928-1.169 1.803-2.272 2.063-3.91.242-1.523-.172-2.729-.308-3.126-.518-1.506-1.456-2.45-2.209-3.208-.283-.287-.389-.366-.702-.602-.334-.253-.894-.676-2.072-1.664-1.496-1.255-1.97-1.722-2.41-2.241-.456-.535-.868-1.11-1.23-1.715-.242-.405-.088-.93.331-1.142.38-.195.846-.063 1.065.304.316.529.675 1.03 1.072 1.497.318.374.684.762 2.217 2.048 1.147.962 1.666 1.354 2.009 1.614.329.249.51.386.875.753.825.83 1.954 1.967 2.592 3.827.453 1.318.58 2.633.378 3.91-.329 2.06-1.427 3.446-2.396 4.668-.517.653-1.098 1.265-1.727 1.82-.58.511-.99.788-1.386 1.055-.2.135-.407.275-.639.446-1.347 1.002-2.178 2.031-2.638 2.717-.507.76-1.276 1.906-1.407 3.558-.13 1.622.412 2.836.616 3.292.699 1.56 1.802 2.516 2.532 3.149.287.246.465.376.691.54.28.203.629.456 1.272.995.686.576 1.395 1.17 2.128 1.955.664.71 1.27 1.492 1.81 2.333.252.394.127.92-.28 1.152" transform="translate(117.099 28.07)"/>
                <path fill="#63BA97" d="M8.61 10.032H2.52v-.95h6.09c.267 0 .484.213.484.474 0 .263-.217.476-.485.476M10.692 16.38H.608v-.95h10.084c.27 0 .49.213.49.476 0 .262-.22.474-.49.474M9.376 19.47H2.268v-.951h7.108c.288 0 .522.212.522.475s-.234.475-.522.475M10.707 13.206H.813v-.95h9.894c.263 0 .475.213.475.475 0 .263-.212.475-.475.475" transform="translate(117.099 28.07)"/>
                <path fill="#91CEB6" d="M2.653 26.247L9.094 26.247 9.094 25.296 2.653 25.296zM.741 32.596L11.006 32.596 11.006 31.645.741 31.645zM2.402 35.684L9.345 35.684 9.345 34.734 2.402 34.734zM.947 29.422L11.315 29.422 11.315 28.472.947 28.472z" transform="translate(117.099 28.07)"/>
                <path fill="#63BA97" d="M1.515 43.456c-.405-.233-.53-.758-.278-1.152.539-.841 1.145-1.623 1.81-2.333.733-.785 1.442-1.379 2.128-1.955.642-.54.99-.792 1.27-.995.227-.164.406-.294.691-.54.731-.634 1.835-1.59 2.533-3.149.204-.456.747-1.669.617-3.292-.131-1.652-.9-2.798-1.407-3.558-.461-.686-1.291-1.715-2.638-2.717-.233-.171-.439-.31-.64-.446-.396-.267-.806-.544-1.385-1.054-.63-.557-1.21-1.169-1.727-1.821-.97-1.222-2.069-2.608-2.396-4.668-.202-1.277-.076-2.592.378-3.91.638-1.86 1.767-2.997 2.592-3.827.365-.367.546-.504.875-.753.343-.26.861-.652 2.008-1.614C7.48 4.386 7.844 3.998 8.164 3.624c.397-.467.756-.968 1.072-1.497.219-.367.685-.499 1.064-.304.42.213.573.737.331 1.142-.362.606-.773 1.18-1.228 1.715-.442.519-.915.986-2.412 2.24-1.178.989-1.737 1.412-2.072 1.665-.312.236-.418.315-.703.602-.752.758-1.69 1.702-2.207 3.208-.136.397-.55 1.603-.309 3.125.26 1.639 1.136 2.742 2.063 3.911.458.577.972 1.12 1.53 1.613.5.44.832.664 1.217.924.216.144.439.295.701.49 1.534 1.138 2.488 2.324 3.02 3.118.565.845 1.512 2.258 1.678 4.335.162 2.038-.528 3.58-.755 4.087-.845 1.888-2.164 3.03-2.952 3.714-.339.293-.563.456-.802.63-.272.196-.58.42-1.18.923-.679.57-1.319 1.106-1.986 1.82-.598.64-1.146 1.346-1.633 2.108-.233.363-.712.477-1.086.263M31.906 19.753l5.354 3.048 5.356-3.048v-6.544l-5.356-3.047-5.354 3.047v6.544zm5.354 4.332l-6.47-3.682v-7.844l6.47-3.682 6.47 3.682v7.844l-6.47 3.682z" transform="translate(117.099 28.07)"/>
                <path fill="#63BA97" d="M37.818 30.437l5.355 3.048 5.355-3.048v-6.545l-5.355-3.047-5.355 3.047v6.545zm5.355 4.332l-6.47-3.682v-7.844l6.47-3.683 6.47 3.683v7.844l-6.47 3.682zM32.79 14.593L32.239 13.624 37.449 10.658 38 11.629z" transform="translate(117.099 28.07)"/>
                <path fill="#63BA97" d="M42.992 32.811L42.44 31.84 47.65 28.875 48.202 29.846zM26.184 23.922L25.615 22.963 31.015 19.755 31.585 20.714zM32.097 34.25L31.528 33.289 36.927 30.081 37.497 31.042zM43.458 13.248L42.889 12.288 48.289 9.08 48.858 10.04zM40.879 19.4L41.995 19.4 41.995 13.338 40.879 13.338zM38.17 29.928L39.285 29.928 39.285 23.866 38.17 23.866zM36.575 9.508L37.692 9.508 37.692 4.084 36.575 4.084zM52.99 40.856l5.355 3.048 5.355-3.048v-6.544l-5.355-3.047-5.354 3.047v6.544zm5.355 4.332l-6.47-3.682v-7.844l6.47-3.682 6.47 3.682v7.844l-6.47 3.682z" transform="translate(117.099 28.07)"/>
                <path fill="#63BA97" d="M53.875 35.697L53.324 34.727 58.534 31.761 59.085 32.732zM47.269 45.026L46.7 44.066 52.1 40.858 52.67 41.818zM62.08 40.459L63.196 40.459 63.196 34.555 62.08 34.555zM57.775 30.567L58.891 30.567 58.891 25.143 57.775 25.143zM42.633 39.341L43.748 39.341 43.748 33.598 42.633 33.598z" transform="translate(117.099 28.07)"/>
                <path fill="#91CEB6" d="M39.068 2.262h-3.862c-.622 0-1.13-.51-1.13-1.131 0-.623.508-1.131 1.13-1.131h3.862c.622 0 1.13.508 1.13 1.13 0 .622-.508 1.132-1.13 1.132M25.501 30.845H21.64c-.622 0-1.13-.51-1.13-1.13 0-.623.508-1.132 1.13-1.132H25.5c.622 0 1.13.509 1.13 1.132 0 .62-.508 1.13-1.13 1.13M43.4 42.47h-3.861c-.622 0-1.131-.51-1.131-1.132 0-.623.509-1.131 1.13-1.131H43.4c.622 0 1.13.508 1.13 1.131 0 .622-.508 1.132-1.13 1.132M55.017 8.716h-3.86c-.623 0-1.131-.51-1.131-1.132 0-.622.508-1.13 1.13-1.13h3.861c.622 0 1.13.508 1.13 1.13 0 .622-.508 1.132-1.13 1.132M53.43 12.084h-2.274c-.622 0-1.13-.51-1.13-1.132 0-.622.508-1.13 1.13-1.13h2.274c.622 0 1.13.508 1.13 1.13 0 .623-.508 1.132-1.13 1.132M59.446 23.038H57.17c-.621 0-1.13-.51-1.13-1.131 0-.623.509-1.131 1.13-1.131h2.276c.622 0 1.13.508 1.13 1.13 0 .623-.508 1.132-1.13 1.132M32.004 37.62H29.73c-.621 0-1.13-.51-1.13-1.132 0-.622.509-1.13 1.13-1.13h2.274c.622 0 1.13.508 1.13 1.13 0 .623-.508 1.132-1.13 1.132M25.499 27.445h-2.276c-.62 0-1.13-.51-1.13-1.131 0-.623.51-1.132 1.13-1.132H25.5c.622 0 1.13.509 1.13 1.132 0 .622-.508 1.13-1.13 1.13" transform="translate(117.099 28.07)"/>
            </g>
            <path stroke="#63BA97" stroke-width=".8" d="M8.538 134.222L213.755 134.222 213.755 9.764 8.538 9.764z"/>
            <path stroke="#63BA97" d="M91.546 142.783H131.216V155H91.546z"/>
            <g fill="#1496E1" transform="translate(29.753 92.825)">
                <rect width="165.546" height="7.126" y=".115" fill-opacity=".4" rx="3.563"/>
                <path d="M3.563.115H57.98V7.24H3.563C1.595 7.241 0 5.646 0 3.678 0 1.71 1.595.115 3.563.115z"/>
            </g>
            <g transform="translate(43.912 18.307)">
                <ellipse cx="31.714" cy="31.732" fill="#FFF" stroke="#63BA97" rx="31.714" ry="31.732"/>
                <g fill="#333">
                    <path d="M17.864 35.171L18.648 35.171 18.648 1.727 17.864 1.727z" transform="translate(13.875 12.891)"/>
                    <path d="M9.652 4.14L10.331 3.748 27.038 32.711 26.359 33.104z" transform="translate(13.875 12.891)"/>
                    <path d="M3.744 10.34L4.137 9.66 33.075 26.382 32.683 27.062z" transform="translate(13.875 12.891)"/>
                    <path d="M32.769 10.34L32.377 9.66 3.439 26.382 3.831 27.062z" transform="translate(13.875 12.891)"/>
                    <path d="M26.862 4.14L26.182 3.748 9.475 32.711 10.155 33.104z" transform="translate(13.875 12.891)"/>
                    <path d="M1.726 18.665L35.141 18.665 35.141 17.881 1.726 17.881zM18.257 2.748c.756 0 1.373-.617 1.373-1.374C19.63.617 19.013 0 18.257 0s-1.372.617-1.372 1.374c0 .757.616 1.374 1.372 1.374M18.257 36.545c.756 0 1.373-.617 1.373-1.374 0-.757-.617-1.374-1.373-1.374s-1.372.617-1.372 1.374c0 .757.616 1.374 1.372 1.374M9.128 2.448c.657-.379 1.496-.154 1.875.503.38.657.155 1.497-.502 1.877-.657.38-1.496.154-1.875-.503s-.154-1.497.502-1.877M26.012 31.718c.657-.38 1.497-.155 1.876.502.379.657.154 1.498-.503 1.877-.657.38-1.496.154-1.875-.503s-.154-1.497.502-1.876M2.446 9.137c.379-.657 1.219-.882 1.875-.503.657.379.881 1.22.503 1.876-.38.658-1.219.883-1.876.503-.656-.38-.881-1.22-.502-1.876M31.69 26.035c.379-.657 1.218-.882 1.875-.503.657.38.881 1.22.503 1.877-.38.657-1.219.882-1.876.503-.656-.38-.881-1.22-.502-1.877M34.068 9.137c-.38-.657-1.219-.882-1.875-.503-.657.379-.882 1.22-.503 1.876.379.658 1.219.883 1.875.503.657-.38.882-1.22.503-1.876M4.824 26.035c-.38-.657-1.219-.882-1.875-.503-.657.38-.882 1.22-.503 1.877.38.657 1.219.882 1.875.503.657-.38.881-1.22.503-1.877M27.385 2.448c-.656-.379-1.496-.154-1.875.503s-.154 1.497.502 1.877c.657.38 1.496.154 1.875-.503.38-.657.154-1.497-.502-1.877M10.501 31.718c-.656-.38-1.496-.155-1.875.502s-.154 1.498.502 1.877c.657.38 1.496.154 1.875-.503.38-.657.155-1.497-.502-1.876" transform="translate(13.875 12.891)"/>
                    <path d="M0 18.273c0-.759.614-1.374 1.373-1.374.758 0 1.372.615 1.372 1.374 0 .758-.614 1.374-1.372 1.374-.759 0-1.373-.616-1.373-1.374M33.768 18.273c0-.759.614-1.374 1.373-1.374.758 0 1.372.615 1.372 1.374 0 .758-.614 1.374-1.372 1.374-.759 0-1.373-.616-1.373-1.374M12.227 28.061C6.585 24.728 4.711 17.45 8.041 11.802s10.603-7.522 16.245-4.19c5.642 3.333 7.516 10.613 4.186 16.26-3.33 5.646-10.603 7.522-16.245 4.19" transform="translate(13.875 12.891)"/>
                </g>
                <path stroke="#63BA97" d="M10.838 8.64L55.236 53.063"/>
            </g>
        </g>
        <g>
            <path d="M96.323 56.797H7.52c-.182 0-.33-.147-.33-.329V3.004C7.19 1.345 8.538 0 10.2 0h83.443c1.663 0 3.01 1.345 3.01 3.004v53.464c0 .182-.148.33-.33.33" transform="translate(1 77)"/>
            <path fill="#FFF" stroke="#63BA97" d="M96.323 56.797H7.52c-.182 0-.33-.147-.33-.329V3.004C7.19 1.345 8.538 0 10.2 0h83.443c1.663 0 3.01 1.345 3.01 3.004v53.464c0 .182-.148.33-.33.33z" transform="translate(1 77)"/>
            <path fill="#63BA97" d="M100.369 60.912H3.474C1.555 60.912 0 59.36 0 57.445v-.037c0-.458.372-.83.831-.83h102.18c.46 0 .832.372.832.83v.037c0 1.915-1.555 3.467-3.474 3.467" transform="translate(1 77)"/>
            <path fill="#FFF" d="M43.713 58.744c-1.114 0-2.016-.9-2.016-2.012v-.129c0-.075.06-.135.135-.135h20.179c.075 0 .135.06.135.135v.13c0 1.11-.902 2.011-2.016 2.011H43.713z" transform="translate(1 77)"/>
            <path stroke="#63BA97" stroke-width=".8" d="M11.04 53.388L92.803 53.388 92.803 4.195 11.04 4.195z" transform="translate(1 77)"/>
            <path fill="#333" d="M60.412 28.686c0 4.02-3.276 7.278-7.317 7.278s-7.318-3.258-7.318-7.278 3.277-7.278 7.318-7.278c4.041 0 7.317 3.258 7.317 7.278m4.335.05l2.404-1.09-.509-2.87-2.652-.205c-.34-.89-.788-1.729-1.327-2.5l1.367-2.296-2.072-2.061-2.328 1.374c-1.314-.887-2.82-1.511-4.443-1.804l-.673-2.644h-2.931l-.675 2.661c-.922.174-1.804.457-2.635.833l-2.095-1.804-2.4 1.672.988 2.579c-.642.654-1.209 1.382-1.683 2.172l-2.76-.283-1.002 2.74 2.285 1.54c-.107.63-.165 1.276-.165 1.936 0 .276.013.548.032.82L39.07 30.84l.758 2.815 2.721-.034c.402.85.905 1.642 1.494 2.363l-1.175 2.427 2.245 1.874 2.176-1.55c.817.468 1.695.84 2.621 1.1l.436 2.61 2.92.255.88-2.472c.977-.087 1.918-.293 2.81-.605l1.843 1.862 2.538-1.457-.697-2.511c.734-.622 1.39-1.332 1.95-2.114l2.578.473 1.239-2.642-2.023-1.662c.234-.907.36-1.857.363-2.836" transform="translate(1 77)"/>
        </g>
        <g>
            <path d="M96.323 56.797H7.52c-.182 0-.33-.147-.33-.329V3.004C7.19 1.345 8.538 0 10.2 0h83.443c1.663 0 3.01 1.345 3.01 3.004v53.464c0 .182-.148.33-.33.33" transform="translate(135 212)"/>
            <path fill="#FFF" stroke="#63BA97" d="M96.323 56.797H7.52c-.182 0-.33-.147-.33-.329V3.004C7.19 1.345 8.538 0 10.2 0h83.443c1.663 0 3.01 1.345 3.01 3.004v53.464c0 .182-.148.33-.33.33z" transform="translate(135 212)"/>
            <path fill="#63BA97" d="M100.369 60.912H3.474C1.555 60.912 0 59.36 0 57.445v-.037c0-.458.372-.83.831-.83h102.18c.46 0 .832.372.832.83v.037c0 1.915-1.555 3.467-3.474 3.467" transform="translate(135 212)"/>
            <path fill="#FFF" d="M43.713 58.744c-1.114 0-2.016-.9-2.016-2.012v-.129c0-.075.06-.135.135-.135h20.179c.075 0 .135.06.135.135v.13c0 1.11-.902 2.011-2.016 2.011H43.713z" transform="translate(135 212)"/>
            <path stroke="#63BA97" stroke-width=".8" d="M11.04 53.388L92.803 53.388 92.803 4.195 11.04 4.195z" transform="translate(135 212)"/>
            <path fill="#333" d="M60.412 28.686c0 4.02-3.276 7.278-7.317 7.278s-7.318-3.258-7.318-7.278 3.277-7.278 7.318-7.278c4.041 0 7.317 3.258 7.317 7.278m4.335.05l2.404-1.09-.509-2.87-2.652-.205c-.34-.89-.788-1.729-1.327-2.5l1.367-2.296-2.072-2.061-2.328 1.374c-1.314-.887-2.82-1.511-4.443-1.804l-.673-2.644h-2.931l-.675 2.661c-.922.174-1.804.457-2.635.833l-2.095-1.804-2.4 1.672.988 2.579c-.642.654-1.209 1.382-1.683 2.172l-2.76-.283-1.002 2.74 2.285 1.54c-.107.63-.165 1.276-.165 1.936 0 .276.013.548.032.82L39.07 30.84l.758 2.815 2.721-.034c.402.85.905 1.642 1.494 2.363l-1.175 2.427 2.245 1.874 2.176-1.55c.817.468 1.695.84 2.621 1.1l.436 2.61 2.92.255.88-2.472c.977-.087 1.918-.293 2.81-.605l1.843 1.862 2.538-1.457-.697-2.511c.734-.622 1.39-1.332 1.95-2.114l2.578.473 1.239-2.642-2.023-1.662c.234-.907.36-1.857.363-2.836" transform="translate(135 212)"/>
        </g>
        <g>
            <path d="M96.323 56.797H7.52c-.182 0-.33-.147-.33-.329V3.004C7.19 1.345 8.538 0 10.2 0h83.443c1.663 0 3.01 1.345 3.01 3.004v53.464c0 .182-.148.33-.33.33" transform="translate(367 55)"/>
            <path fill="#FFF" stroke="#63BA97" d="M96.323 56.797H7.52c-.182 0-.33-.147-.33-.329V3.004C7.19 1.345 8.538 0 10.2 0h83.443c1.663 0 3.01 1.345 3.01 3.004v53.464c0 .182-.148.33-.33.33z" transform="translate(367 55)"/>
            <path fill="#63BA97" d="M100.369 60.912H3.474C1.555 60.912 0 59.36 0 57.445v-.037c0-.458.372-.83.831-.83h102.18c.46 0 .832.372.832.83v.037c0 1.915-1.555 3.467-3.474 3.467" transform="translate(367 55)"/>
            <path fill="#FFF" d="M43.713 58.744c-1.114 0-2.016-.9-2.016-2.012v-.129c0-.075.06-.135.135-.135h20.179c.075 0 .135.06.135.135v.13c0 1.11-.902 2.011-2.016 2.011H43.713z" transform="translate(367 55)"/>
            <path stroke="#63BA97" stroke-width=".8" d="M11.04 53.388L92.803 53.388 92.803 4.195 11.04 4.195z" transform="translate(367 55)"/>
            <path fill="#333" d="M60.412 28.686c0 4.02-3.276 7.278-7.317 7.278s-7.318-3.258-7.318-7.278 3.277-7.278 7.318-7.278c4.041 0 7.317 3.258 7.317 7.278m4.335.05l2.404-1.09-.509-2.87-2.652-.205c-.34-.89-.788-1.729-1.327-2.5l1.367-2.296-2.072-2.061-2.328 1.374c-1.314-.887-2.82-1.511-4.443-1.804l-.673-2.644h-2.931l-.675 2.661c-.922.174-1.804.457-2.635.833l-2.095-1.804-2.4 1.672.988 2.579c-.642.654-1.209 1.382-1.683 2.172l-2.76-.283-1.002 2.74 2.285 1.54c-.107.63-.165 1.276-.165 1.936 0 .276.013.548.032.82L39.07 30.84l.758 2.815 2.721-.034c.402.85.905 1.642 1.494 2.363l-1.175 2.427 2.245 1.874 2.176-1.55c.817.468 1.695.84 2.621 1.1l.436 2.61 2.92.255.88-2.472c.977-.087 1.918-.293 2.81-.605l1.843 1.862 2.538-1.457-.697-2.511c.734-.622 1.39-1.332 1.95-2.114l2.578.473 1.239-2.642-2.023-1.662c.234-.907.36-1.857.363-2.836" transform="translate(367 55)"/>
        </g>
        <g>
            <path d="M96.323 56.797H7.52c-.182 0-.33-.147-.33-.329V3.004C7.19 1.345 8.538 0 10.2 0h83.443c1.663 0 3.01 1.345 3.01 3.004v53.464c0 .182-.148.33-.33.33" transform="translate(406 197)"/>
            <path fill="#FFF" stroke="#63BA97" d="M96.323 56.797H7.52c-.182 0-.33-.147-.33-.329V3.004C7.19 1.345 8.538 0 10.2 0h83.443c1.663 0 3.01 1.345 3.01 3.004v53.464c0 .182-.148.33-.33.33z" transform="translate(406 197)"/>
            <path fill="#63BA97" d="M100.369 60.912H3.474C1.555 60.912 0 59.36 0 57.445v-.037c0-.458.372-.83.831-.83h102.18c.46 0 .832.372.832.83v.037c0 1.915-1.555 3.467-3.474 3.467" transform="translate(406 197)"/>
            <path fill="#FFF" d="M43.713 58.744c-1.114 0-2.016-.9-2.016-2.012v-.129c0-.075.06-.135.135-.135h20.179c.075 0 .135.06.135.135v.13c0 1.11-.902 2.011-2.016 2.011H43.713z" transform="translate(406 197)"/>
            <path stroke="#63BA97" stroke-width=".8" d="M11.04 53.388L92.803 53.388 92.803 4.195 11.04 4.195z" transform="translate(406 197)"/>
            <path fill="#333" d="M60.412 28.686c0 4.02-3.276 7.278-7.317 7.278s-7.318-3.258-7.318-7.278 3.277-7.278 7.318-7.278c4.041 0 7.317 3.258 7.317 7.278m4.335.05l2.404-1.09-.509-2.87-2.652-.205c-.34-.89-.788-1.729-1.327-2.5l1.367-2.296-2.072-2.061-2.328 1.374c-1.314-.887-2.82-1.511-4.443-1.804l-.673-2.644h-2.931l-.675 2.661c-.922.174-1.804.457-2.635.833l-2.095-1.804-2.4 1.672.988 2.579c-.642.654-1.209 1.382-1.683 2.172l-2.76-.283-1.002 2.74 2.285 1.54c-.107.63-.165 1.276-.165 1.936 0 .276.013.548.032.82L39.07 30.84l.758 2.815 2.721-.034c.402.85.905 1.642 1.494 2.363l-1.175 2.427 2.245 1.874 2.176-1.55c.817.468 1.695.84 2.621 1.1l.436 2.61 2.92.255.88-2.472c.977-.087 1.918-.293 2.81-.605l1.843 1.862 2.538-1.457-.697-2.511c.734-.622 1.39-1.332 1.95-2.114l2.578.473 1.239-2.642-2.023-1.662c.234-.907.36-1.857.363-2.836" transform="translate(406 197)"/>
        </g>
        <g>
            <path stroke="#333" d="M2.818 1.914c0 .453-.379.82-.846.82-.467 0-.845-.367-.845-.82 0-.453.378-.82.845-.82.467 0 .846.367.846.82M36.628 1.914c0 .453-.378.82-.845.82-.467 0-.845-.367-.845-.82 0-.453.378-.82.845-.82.467 0 .845.367.845.82M2.818 29.621c0 .453-.379.82-.846.82-.467 0-.845-.367-.845-.82 0-.453.378-.82.845-.82.467 0 .846.367.846.82" transform="translate(144 72)"/>
            <path fill="#FFF" stroke="#63BA97" d="M0 2.187v27.16c0 1.204 1.014 2.188 2.254 2.188h44.705c1.24 0 2.254-.984 2.254-2.187V2.188C49.213.983 48.2 0 46.96 0H2.254C1.014 0 0 .984 0 2.187" transform="translate(144 72)"/>
            <path fill="#FFF" stroke="#91CEB6" stroke-width=".8" d="M52.522 15.094v7.595c0 .221-.188.402-.417.402H41.5c-.23 0-.417-.181-.417-.402v-7.595c0-.222.188-.403.417-.403h10.605c.23 0 .417.181.417.403M52.522 3.894v7.595c0 .221-.188.402-.417.402H41.5c-.23 0-.417-.18-.417-.402V3.894c0-.222.188-.403.417-.403h10.605c.23 0 .417.181.417.403M25.485 28.398v4.933c0 .183-.22.333-.488.333H14.536c-.27 0-.489-.15-.489-.333v-4.933c0-.184.22-.334.489-.334h10.46c.27 0 .49.15.49.334" transform="translate(144 72)"/>
            <path fill="#333" d="M26.994 14.71c0 2.608-2.168 4.721-4.843 4.721s-4.843-2.113-4.843-4.72c0-2.608 2.168-4.722 4.843-4.722s4.843 2.114 4.843 4.721m2.87.033l1.59-.707-.336-1.862-1.755-.132c-.226-.579-.522-1.122-.879-1.622l.905-1.49-1.371-1.336-1.541.891c-.87-.575-1.867-.98-2.941-1.17L23.09 5.6h-1.94l-.446 1.726c-.61.113-1.194.296-1.744.54l-1.387-1.17-1.59 1.085.656 1.672c-.426.424-.8.897-1.115 1.41l-1.826-.184-.664 1.777 1.512 1c-.07.408-.109.826-.109 1.254 0 .18.01.356.022.532l-1.591.865.502 1.827 1.8-.023c.267.551.6 1.065.99 1.533l-.778 1.574 1.486 1.216 1.44-1.006c.54.304 1.122.545 1.735.714l.289 1.693 1.932.165.583-1.603c.646-.057 1.27-.19 1.86-.393l1.22 1.208 1.68-.945-.462-1.629c.486-.403.92-.864 1.29-1.37l1.707.306.82-1.714-1.339-1.078c.155-.588.238-1.204.24-1.84" transform="translate(144 72)"/>
        </g>
        <g>
            <path stroke="#333" d="M2.818 1.914c0 .453-.379.82-.846.82-.467 0-.845-.367-.845-.82 0-.453.378-.82.845-.82.467 0 .846.367.846.82M36.628 1.914c0 .453-.378.82-.845.82-.467 0-.845-.367-.845-.82 0-.453.378-.82.845-.82.467 0 .845.367.845.82M2.818 29.621c0 .453-.379.82-.846.82-.467 0-.845-.367-.845-.82 0-.453.378-.82.845-.82.467 0 .846.367.846.82" transform="translate(271 100)"/>
            <path fill="#FFF" stroke="#63BA97" d="M0 2.187v27.16c0 1.204 1.014 2.188 2.254 2.188h44.705c1.24 0 2.254-.984 2.254-2.187V2.188C49.213.983 48.2 0 46.96 0H2.254C1.014 0 0 .984 0 2.187" transform="translate(271 100)"/>
            <path fill="#FFF" stroke="#91CEB6" stroke-width=".8" d="M52.522 15.094v7.595c0 .221-.188.402-.417.402H41.5c-.23 0-.417-.181-.417-.402v-7.595c0-.222.188-.403.417-.403h10.605c.23 0 .417.181.417.403M52.522 3.894v7.595c0 .221-.188.402-.417.402H41.5c-.23 0-.417-.18-.417-.402V3.894c0-.222.188-.403.417-.403h10.605c.23 0 .417.181.417.403M25.485 28.398v4.933c0 .183-.22.333-.488.333H14.536c-.27 0-.489-.15-.489-.333v-4.933c0-.184.22-.334.489-.334h10.46c.27 0 .49.15.49.334" transform="translate(271 100)"/>
            <path fill="#333" d="M26.994 14.71c0 2.608-2.168 4.721-4.843 4.721s-4.843-2.113-4.843-4.72c0-2.608 2.168-4.722 4.843-4.722s4.843 2.114 4.843 4.721m2.87.033l1.59-.707-.336-1.862-1.755-.132c-.226-.579-.522-1.122-.879-1.622l.905-1.49-1.371-1.336-1.541.891c-.87-.575-1.867-.98-2.941-1.17L23.09 5.6h-1.94l-.446 1.726c-.61.113-1.194.296-1.744.54l-1.387-1.17-1.59 1.085.656 1.672c-.426.424-.8.897-1.115 1.41l-1.826-.184-.664 1.777 1.512 1c-.07.408-.109.826-.109 1.254 0 .18.01.356.022.532l-1.591.865.502 1.827 1.8-.023c.267.551.6 1.065.99 1.533l-.778 1.574 1.486 1.216 1.44-1.006c.54.304 1.122.545 1.735.714l.289 1.693 1.932.165.583-1.603c.646-.057 1.27-.19 1.86-.393l1.22 1.208 1.68-.945-.462-1.629c.486-.403.92-.864 1.29-1.37l1.707.306.82-1.714-1.339-1.078c.155-.588.238-1.204.24-1.84" transform="translate(271 100)"/>
        </g>
        <g>
            <path stroke="#333" d="M2.818 1.914c0 .453-.379.82-.846.82-.467 0-.845-.367-.845-.82 0-.453.378-.82.845-.82.467 0 .846.367.846.82M36.628 1.914c0 .453-.378.82-.845.82-.467 0-.845-.367-.845-.82 0-.453.378-.82.845-.82.467 0 .845.367.845.82M2.818 29.621c0 .453-.379.82-.846.82-.467 0-.845-.367-.845-.82 0-.453.378-.82.845-.82.467 0 .846.367.846.82" transform="translate(302 195)"/>
            <path fill="#FFF" stroke="#63BA97" d="M0 2.187v27.16c0 1.204 1.014 2.188 2.254 2.188h44.705c1.24 0 2.254-.984 2.254-2.187V2.188C49.213.983 48.2 0 46.96 0H2.254C1.014 0 0 .984 0 2.187" transform="translate(302 195)"/>
            <path fill="#FFF" stroke="#91CEB6" stroke-width=".8" d="M52.522 15.094v7.595c0 .221-.188.402-.417.402H41.5c-.23 0-.417-.181-.417-.402v-7.595c0-.222.188-.403.417-.403h10.605c.23 0 .417.181.417.403M52.522 3.894v7.595c0 .221-.188.402-.417.402H41.5c-.23 0-.417-.18-.417-.402V3.894c0-.222.188-.403.417-.403h10.605c.23 0 .417.181.417.403M25.485 28.398v4.933c0 .183-.22.333-.488.333H14.536c-.27 0-.489-.15-.489-.333v-4.933c0-.184.22-.334.489-.334h10.46c.27 0 .49.15.49.334" transform="translate(302 195)"/>
            <path fill="#333" d="M26.994 14.71c0 2.608-2.168 4.721-4.843 4.721s-4.843-2.113-4.843-4.72c0-2.608 2.168-4.722 4.843-4.722s4.843 2.114 4.843 4.721m2.87.033l1.59-.707-.336-1.862-1.755-.132c-.226-.579-.522-1.122-.879-1.622l.905-1.49-1.371-1.336-1.541.891c-.87-.575-1.867-.98-2.941-1.17L23.09 5.6h-1.94l-.446 1.726c-.61.113-1.194.296-1.744.54l-1.387-1.17-1.59 1.085.656 1.672c-.426.424-.8.897-1.115 1.41l-1.826-.184-.664 1.777 1.512 1c-.07.408-.109.826-.109 1.254 0 .18.01.356.022.532l-1.591.865.502 1.827 1.8-.023c.267.551.6 1.065.99 1.533l-.778 1.574 1.486 1.216 1.44-1.006c.54.304 1.122.545 1.735.714l.289 1.693 1.932.165.583-1.603c.646-.057 1.27-.19 1.86-.393l1.22 1.208 1.68-.945-.462-1.629c.486-.403.92-.864 1.29-1.37l1.707.306.82-1.714-1.339-1.078c.155-.588.238-1.204.24-1.84" transform="translate(302 195)"/>
        </g>
        <g>
            <path stroke="#333" d="M2.818 1.914c0 .453-.379.82-.846.82-.467 0-.845-.367-.845-.82 0-.453.378-.82.845-.82.467 0 .846.367.846.82M36.628 1.914c0 .453-.378.82-.845.82-.467 0-.845-.367-.845-.82 0-.453.378-.82.845-.82.467 0 .845.367.845.82M2.818 29.621c0 .453-.379.82-.846.82-.467 0-.845-.367-.845-.82 0-.453.378-.82.845-.82.467 0 .846.367.846.82" transform="translate(74 180)"/>
            <path fill="#FFF" stroke="#63BA97" d="M0 2.187v27.16c0 1.204 1.014 2.188 2.254 2.188h44.705c1.24 0 2.254-.984 2.254-2.187V2.188C49.213.983 48.2 0 46.96 0H2.254C1.014 0 0 .984 0 2.187" transform="translate(74 180)"/>
            <path fill="#FFF" stroke="#91CEB6" stroke-width=".8" d="M52.522 15.094v7.595c0 .221-.188.402-.417.402H41.5c-.23 0-.417-.181-.417-.402v-7.595c0-.222.188-.403.417-.403h10.605c.23 0 .417.181.417.403M52.522 3.894v7.595c0 .221-.188.402-.417.402H41.5c-.23 0-.417-.18-.417-.402V3.894c0-.222.188-.403.417-.403h10.605c.23 0 .417.181.417.403M25.485 28.398v4.933c0 .183-.22.333-.488.333H14.536c-.27 0-.489-.15-.489-.333v-4.933c0-.184.22-.334.489-.334h10.46c.27 0 .49.15.49.334" transform="translate(74 180)"/>
            <path fill="#333" d="M26.994 14.71c0 2.608-2.168 4.721-4.843 4.721s-4.843-2.113-4.843-4.72c0-2.608 2.168-4.722 4.843-4.722s4.843 2.114 4.843 4.721m2.87.033l1.59-.707-.336-1.862-1.755-.132c-.226-.579-.522-1.122-.879-1.622l.905-1.49-1.371-1.336-1.541.891c-.87-.575-1.867-.98-2.941-1.17L23.09 5.6h-1.94l-.446 1.726c-.61.113-1.194.296-1.744.54l-1.387-1.17-1.59 1.085.656 1.672c-.426.424-.8.897-1.115 1.41l-1.826-.184-.664 1.777 1.512 1c-.07.408-.109.826-.109 1.254 0 .18.01.356.022.532l-1.591.865.502 1.827 1.8-.023c.267.551.6 1.065.99 1.533l-.778 1.574 1.486 1.216 1.44-1.006c.54.304 1.122.545 1.735.714l.289 1.693 1.932.165.583-1.603c.646-.057 1.27-.19 1.86-.393l1.22 1.208 1.68-.945-.462-1.629c.486-.403.92-.864 1.29-1.37l1.707.306.82-1.714-1.339-1.078c.155-.588.238-1.204.24-1.84" transform="translate(74 180)"/>
        </g>
        <path fill="#63BA97" fill-rule="nonzero" d="M278.673 365.492c.296-.001.537.239.538.535 0 .084-.02.166-.056.24l-3.947 7.935c-.132.266-.454.374-.72.242-.103-.052-.188-.136-.24-.24l-3.98-7.918c-.133-.265-.026-.587.239-.72.074-.038.156-.057.24-.058zm-3.978-6.992c.245-.001.45.175.493.409l.008.09.008 4c.001.276-.222.5-.499.5-.245.001-.45-.175-.492-.409l-.009-.09-.008-4c0-.276.223-.5.499-.5zm-.017-8c.245 0 .45.175.493.409l.008.09.008 4c.001.276-.222.5-.498.5-.246.001-.45-.175-.493-.409l-.009-.09-.008-4c0-.276.223-.5.499-.5zm-.017-8c.245 0 .45.176.493.409l.008.09.009 4c0 .276-.223.5-.5.5-.245.001-.45-.175-.492-.409l-.008-.09-.009-4c0-.275.223-.5.499-.5zm-.017-8c.246 0 .45.176.493.409l.008.09.009 4c0 .276-.223.5-.5.5-.245.001-.45-.175-.492-.408l-.008-.09-.009-4c0-.276.223-.5.5-.501zm-.017-8c.246 0 .45.176.493.409l.008.09.009 4c0 .276-.223.5-.5.5-.245.001-.45-.175-.492-.408l-.008-.09-.009-4c0-.276.223-.5.5-.501zm-.017-8c.246 0 .45.176.493.409l.008.09.009 4c0 .276-.223.5-.5.5-.245.001-.45-.175-.492-.408l-.008-.09-.009-4c0-.276.223-.5.5-.501zm-.017-8c.246 0 .45.176.493.409l.008.09.009 4c0 .276-.223.5-.5.5-.245.001-.45-.175-.492-.408l-.008-.09-.009-4c0-.276.223-.5.5-.501zm-.017-8c.246 0 .45.176.493.409l.008.09.009 4c0 .276-.223.5-.5.5-.245.001-.45-.175-.492-.408l-.008-.09-.009-4c0-.276.223-.5.5-.501zm-.017-8c.246 0 .45.176.493.409l.008.09.009 4c0 .276-.223.5-.5.5-.245.001-.45-.175-.492-.408l-.008-.09-.009-4c0-.276.223-.5.5-.501zm-.017-8c.246 0 .45.176.493.409l.008.09.009 4c0 .276-.223.5-.499.5-.245.001-.45-.175-.493-.408l-.008-.09-.009-4c0-.276.223-.5.5-.501zm-.017-8c.246 0 .45.176.493.409l.008.09.009 4c0 .276-.223.5-.499.5-.245.001-.45-.175-.493-.408l-.008-.09-.009-4c0-.276.223-.5.5-.501zm-.017-8c.246 0 .45.176.493.409l.009.09.008 4c0 .276-.223.5-.499.5-.245.001-.45-.175-.493-.408l-.008-.09-.008-4c-.001-.276.222-.5.498-.501zm-.016-8c.245 0 .45.176.492.409l.009.09.008 4c0 .276-.223.5-.499.5-.245.001-.45-.175-.493-.408l-.008-.09-.008-4c-.001-.276.222-.5.499-.501zm-.017-8c.245 0 .45.176.492.409l.009.09.008 4c0 .276-.223.5-.499.5-.245.001-.45-.175-.493-.408l-.008-.09-.008-4c0-.276.222-.5.499-.501zm-.017-8c.245 0 .45.176.492.409l.009.09.008 4c0 .276-.223.5-.499.5-.245.001-.45-.175-.493-.408l-.008-.09-.008-4c0-.276.222-.5.499-.501zm-.017-8c.245 0 .45.176.492.409l.009.09.008 4c0 .276-.223.5-.499.5-.245.001-.45-.175-.493-.408l-.008-.09-.008-4c0-.276.223-.5.499-.501zm-.017-8c.245 0 .45.176.493.409l.008.09.008 4c0 .276-.223.5-.499.5-.245.001-.45-.175-.492-.408l-.009-.09-.008-4c0-.276.223-.5.499-.501zm-.017-8c.245 0 .45.176.493.409l.008.09.008 4c0 .276-.222.5-.499.5-.245.001-.45-.175-.492-.408l-.009-.09-.008-4c0-.276.223-.5.499-.501zm-.017-8c.245 0 .45.176.493.409l.008.09.008 4c.001.276-.222.5-.499.5-.245.001-.45-.175-.492-.408l-.009-.09-.008-4c0-.276.223-.5.499-.501zm-.017-8c.245 0 .45.176.493.409l.008.09.008 4c.001.276-.222.5-.499.5-.245.001-.45-.175-.492-.408l-.009-.09-.008-4c0-.276.223-.5.499-.501zm-.017-8c.245 0 .45.176.493.409l.008.09.008 4c.001.276-.222.5-.498.5-.246.001-.45-.175-.493-.408l-.009-.09-.008-4c0-.276.223-.5.499-.501zm-.017-8c.245 0 .45.176.493.409l.008.09.009 4c0 .276-.223.5-.5.5-.245.001-.45-.175-.492-.408l-.008-.09-.009-4c0-.276.223-.5.499-.501zm-.017-8c.246 0 .45.176.493.409l.008.09.009 4c0 .276-.223.5-.5.5-.245.001-.45-.175-.492-.408l-.008-.09-.009-4c0-.276.223-.5.499-.501zm-.017-8c.246 0 .45.176.493.409l.008.09.009 4c0 .276-.223.5-.5.501-.245 0-.45-.176-.492-.41l-.008-.089-.009-4c0-.276.223-.5.5-.501zm-.017-8c.246 0 .45.176.493.41l.008.089.009 4c0 .276-.223.5-.5.501-.245 0-.45-.176-.492-.41l-.008-.089-.009-4c0-.276.223-.5.5-.501zm-.017-8c.246 0 .45.176.493.41l.008.089.009 4c0 .276-.223.5-.5.501-.245 0-.45-.176-.492-.41l-.008-.089-.009-4c0-.276.223-.5.5-.501z"/>
        <g>
            <path fill="#FFF" d="M39.111 0H47.666999999999994V74.222H39.111z" transform="translate(232 278)"/>
            <path fill="#333" fill-rule="nonzero" d="M13.174 53.164c2.331 0 3.944-1.278 4.252-3.39h-1.73c-.273 1.189-1.21 1.893-2.515 1.893-1.71 0-2.79-1.388-2.79-3.603 0-2.2 1.088-3.595 2.783-3.595 1.278 0 2.283.813 2.516 2.05h1.736c-.219-2.119-1.962-3.547-4.252-3.547-2.803 0-4.587 1.948-4.587 5.092 0 3.165 1.77 5.1 4.587 5.1zm8.723-.055c2.215 0 3.602-1.463 3.602-3.848 0-2.365-1.401-3.835-3.602-3.835-2.188 0-3.596 1.476-3.596 3.835 0 2.385 1.395 3.848 3.596 3.848zm0-1.36c-1.162 0-1.867-.916-1.867-2.481 0-1.559.705-2.482 1.867-2.482 1.169 0 1.873.916 1.873 2.482 0 1.565-.698 2.481-1.873 2.481zM28.337 53v-4.54c0-.922.608-1.585 1.469-1.585.827 0 1.347.52 1.347 1.36V53h1.654v-4.58c0-.91.595-1.545 1.45-1.545.874 0 1.366.526 1.366 1.456V53h1.702v-5.086c0-1.49-.97-2.475-2.44-2.475-1.073 0-1.969.568-2.331 1.484h-.034c-.28-.95-1.04-1.484-2.092-1.484-.984 0-1.798.534-2.126 1.402h-.034v-1.313h-1.634V53h1.702zm12.106 2.46v-3.697h.034c.43.834 1.271 1.319 2.345 1.319 1.88 0 3.083-1.477 3.083-3.814 0-2.345-1.21-3.822-3.11-3.822-1.047 0-1.95.52-2.36 1.34h-.033v-1.258H38.74v9.933h1.703zm1.852-3.793c-1.114 0-1.86-.957-1.86-2.4 0-1.435.746-2.406 1.86-2.406 1.128 0 1.866.95 1.866 2.407 0 1.462-.738 2.399-1.866 2.399zm7.362 1.429c1.135 0 1.88-.492 2.29-1.402h.041V53h1.634v-7.472H51.92v4.286c0 1.108-.636 1.84-1.675 1.84-1.005 0-1.53-.589-1.53-1.675v-4.45h-1.703v4.791c0 1.723 1.018 2.776 2.645 2.776zm8.108-.062c.362 0 .71-.027.895-.068V51.66c-.109.014-.341.034-.505.034-.616 0-.903-.294-.903-.909v-3.937h1.415v-1.32h-1.415V43.86H55.55v1.668h-1.019v1.32h1.019v4.17c0 1.442.629 2.016 2.215 2.016zm3-8.456c.534 0 .958-.41.958-.936 0-.534-.424-.937-.957-.937-.527 0-.957.403-.957.937 0 .526.43.936.957.936zM61.62 53v-7.472h-1.702V53h1.702zm3.2 0v-4.286c0-1.094.628-1.832 1.674-1.832 1.026 0 1.532.601 1.532 1.668V53h1.702v-4.785c0-1.73-.944-2.776-2.598-2.776-1.148 0-1.9.479-2.345 1.388h-.034v-1.299h-1.634V53h1.703zm9.597 2.707c2.195 0 3.582-1.107 3.582-2.892v-7.287h-1.668v1.258h-.034c-.43-.827-1.285-1.34-2.351-1.34-1.9 0-3.118 1.477-3.118 3.794 0 2.283 1.238 3.733 3.083 3.733 1.074 0 1.949-.5 2.345-1.3h.041v1.272c0 .923-.718 1.49-1.825 1.49-.855 0-1.525-.334-1.668-.874h-1.702c.13 1.305 1.449 2.146 3.315 2.146zm0-4.108c-1.12 0-1.845-.903-1.845-2.352 0-1.456.724-2.386 1.845-2.386 1.135 0 1.88.95 1.88 2.386 0 1.436-.745 2.352-1.88 2.352zm-54.195 17.51c1.866 0 3.144-1.073 3.288-2.707h-1.606c-.158.848-.76 1.32-1.668 1.32-1.122 0-1.86-.91-1.86-2.461 0-1.504.732-2.448 1.853-2.448.957 0 1.545.575 1.668 1.36h1.606c-.116-1.537-1.34-2.747-3.295-2.747-2.16 0-3.561 1.497-3.561 3.835 0 2.385 1.408 3.848 3.575 3.848zm6.542-.027c.991 0 1.914-.485 2.324-1.285h.041V69h1.634v-5.12c0-1.484-1.21-2.454-3.076-2.454-1.757 0-3.029.977-3.07 2.345h1.573c.116-.602.67-1.005 1.442-1.005.916 0 1.45.43 1.45 1.223v.547l-1.942.116c-1.88.117-2.899.875-2.899 2.208 0 1.327 1.053 2.222 2.523 2.222zm.499-1.306c-.793 0-1.313-.382-1.313-.984 0-.608.493-.964 1.422-1.025l1.71-.11v.568c0 .909-.787 1.551-1.82 1.551zm6.63 3.685v-3.698h.035c.43.834 1.271 1.319 2.345 1.319 1.88 0 3.083-1.477 3.083-3.814 0-2.345-1.21-3.822-3.11-3.822-1.047 0-1.949.52-2.36 1.34h-.033v-1.258h-1.661v9.933h1.702zm1.853-3.794c-1.114 0-1.86-.957-1.86-2.4 0-1.435.746-2.406 1.86-2.406 1.128 0 1.867.95 1.867 2.407 0 1.462-.739 2.399-1.867 2.399zm6.952 1.415c.992 0 1.915-.485 2.325-1.285h.04V69h1.634v-5.12c0-1.484-1.21-2.454-3.076-2.454-1.757 0-3.028.977-3.069 2.345h1.572c.116-.602.67-1.005 1.443-1.005.916 0 1.449.43 1.449 1.223v.547l-1.942.116c-1.88.117-2.898.875-2.898 2.208 0 1.327 1.053 2.222 2.522 2.222zm.5-1.306c-.793 0-1.313-.382-1.313-.984 0-.608.492-.964 1.422-1.025l1.709-.11v.568c0 .909-.786 1.551-1.819 1.551zm8.189 1.333c1.866 0 3.144-1.073 3.288-2.707h-1.606c-.158.848-.76 1.32-1.668 1.32-1.121 0-1.86-.91-1.86-2.461 0-1.504.732-2.448 1.853-2.448.957 0 1.545.575 1.668 1.36h1.606c-.116-1.537-1.34-2.747-3.295-2.747-2.16 0-3.561 1.497-3.561 3.835 0 2.385 1.408 3.848 3.575 3.848zm5.236-8.53c.533 0 .957-.411.957-.937 0-.534-.424-.937-.957-.937-.526 0-.957.403-.957.937 0 .526.43.936.957.936zM57.478 69v-7.472h-1.702V69h1.702zm4.19.034c.362 0 .711-.027.896-.068V67.66c-.11.014-.342.034-.506.034-.615 0-.903-.294-.903-.909v-3.937h1.416v-1.32h-1.416V59.86h-1.702v1.668h-1.018v1.32h1.018v4.17c0 1.442.63 2.016 2.215 2.016zm2.94 2.687c1.674 0 2.474-.622 3.11-2.461l2.707-7.732h-1.798l-1.784 6.002h-.034l-1.791-6.002h-1.853l2.673 7.5-.096.348c-.212.704-.615.984-1.34.984-.109 0-.369-.006-.464-.027v1.354c.102.02.567.034.67.034z" transform="translate(232 278)"/>
            <g fill="#333">
                <path d="M17.45 11.545c0 3.305-2.68 5.983-5.983 5.983-3.304 0-5.983-2.678-5.983-5.983 0-3.304 2.679-5.982 5.983-5.982s5.982 2.678 5.982 5.982m3.545.042l1.965-.896-.416-2.36-2.168-.168c-.279-.732-.645-1.421-1.085-2.054l1.117-1.888-1.694-1.695-1.903 1.13c-1.074-.729-2.306-1.242-3.633-1.483L12.627 0h-2.396l-.552 2.187c-.754.144-1.475.375-2.154.685L5.812 1.389 3.849 2.764l.809 2.12c-.526.537-.989 1.135-1.377 1.785l-2.256-.233-.82 2.252 1.868 1.267c-.087.517-.134 1.048-.134 1.59 0 .227.01.451.026.674L0 13.316l.62 2.314 2.225-.028c.329.698.74 1.35 1.22 1.942l-.96 1.995 1.836 1.54 1.78-1.273c.667.384 1.385.69 2.142.904l.357 2.146 2.387.209.72-2.032c.798-.071 1.567-.241 2.297-.497l1.506 1.53 2.075-1.198-.57-2.064c.6-.51 1.136-1.094 1.595-1.737l2.108.388 1.012-2.171-1.653-1.366c.19-.746.293-1.527.297-2.331" transform="translate(232 278) translate(19.556 6.111)"/>
                <path d="M34.307 22.326c0 2.75-2.229 4.978-4.978 4.978-2.749 0-4.977-2.229-4.977-4.978 0-2.749 2.228-4.977 4.977-4.977 2.75 0 4.978 2.228 4.978 4.977m2.949.034l1.678-.5-.433-2.453-1.76.105c-.232-.61-.536-1.182-.903-1.71l1.106-1.394-1.762-1.762-1.407 1.116c-.894-.606-1.919-1.033-3.023-1.233l-.208-1.809h-2.492l-.21 1.82c-.627.12-1.227.312-1.793.57l-1.22-1.377-2.042 1.43.877 1.62c-.437.447-.822.945-1.145 1.486l-1.792-.428-.852 2.342 1.639.82c-.072.43-.112.872-.112 1.323 0 .189.009.375.022.56l-1.7.672.645 2.407 1.787-.264c.273.58.616 1.123 1.016 1.616l-.99 1.5 1.909 1.602 1.29-1.22c.554.32 1.152.574 1.782.752l.049 1.764 2.482.217.35-1.712c.665-.06 1.305-.201 1.912-.414l1.037 1.398 2.159-1.246-.69-1.593c.499-.424.945-.91 1.326-1.445l1.649.549 1.053-2.258-1.481-.911c.159-.62.244-1.27.247-1.94" transform="translate(232 278) translate(19.556 6.111)"/>
            </g>
        </g>
    </g>
</svg>
