<?xml version="1.0" encoding="UTF-8"?>
<svg width="123px" height="51px" viewBox="0 0 123 51" version="1.1" xmlns="http://www.w3.org/2000/svg" xmlns:xlink="http://www.w3.org/1999/xlink">
    <!-- Generator: Sketch 63.1 (92452) - https://sketch.com -->
    <title>1</title>
    <desc>Created with Sketch.</desc>
    <g id="v3" stroke="none" stroke-width="1" fill="none" fill-rule="evenodd">
        <g id="Covid-19_v3" transform="translate(-770.000000, -738.000000)">
            <g id="1" transform="translate(770.000000, 739.000000)">
                <g id="Group-5">
                    <g id="Group-3">
                        <path d="M78.8930363,46.5553259 L6.15922009,46.5553259 C6.00978378,46.5553259 5.88895703,46.4343597 5.88895703,46.2853716 L5.88895703,2.46232728 C5.88895703,1.10256773 6.9927858,-3.16578447e-14 8.35410054,-3.16578447e-14 L76.6984336,-3.16578447e-14 C78.0597484,-3.16578447e-14 79.1635771,1.10256773 79.1635771,2.46232728 L79.1635771,46.2853716 C79.1635771,46.4343597 79.0424726,46.5553259 78.8930363,46.5553259" id="Fill-1"></path>
                        <path d="M78.8930363,46.5553259 L6.15922009,46.5553259 C6.00978378,46.5553259 5.88895703,46.4343597 5.88895703,46.2853716 L5.88895703,2.46232728 C5.88895703,1.10256773 6.9927858,-3.16578447e-14 8.35410054,-3.16578447e-14 L76.6984336,-3.16578447e-14 C78.0597484,-3.16578447e-14 79.1635771,1.10256773 79.1635771,2.46232728 L79.1635771,46.2853716 C79.1635771,46.4343597 79.0424726,46.5553259 78.8930363,46.5553259 Z" id="Stroke-3" stroke="#63BA97" fill="#FFFFFF"></path>
                        <path d="M82.2069114,49.9280067 L2.84540058,49.9280067 C1.27381951,49.9280067 -2.11293684e-14,48.6556425 -2.11293684e-14,47.0861343 L-2.11293684e-14,47.0558927 C-2.11293684e-14,46.6805092 0.304983389,46.3758742 0.680796253,46.3758742 L84.371238,46.3758742 C84.7473286,46.3758742 85.052312,46.6805092 85.052312,47.0558927 L85.052312,47.0861343 C85.052312,48.6556425 83.7784925,49.9280067 82.2069114,49.9280067" id="Fill-5" fill="#63BA97"></path>
                        <path d="M35.8026889,48.1508835 C34.8907941,48.1508835 34.1516677,47.4126015 34.1516677,46.5017484 L34.1516677,46.3960418 C34.1516677,46.3347264 34.2011094,46.2850636 34.262495,46.2850636 L50.7899281,46.2850636 C50.8513137,46.2850636 50.9007554,46.3347264 50.9007554,46.3960418 L50.9007554,46.5017484 C50.9007554,47.4126015 50.161629,48.1508835 49.2497342,48.1508835 L35.8026889,48.1508835 Z" id="Fill-8" fill="#FFFFFF"></path>
                        <polygon id="Stroke-10" stroke="#63BA97" stroke-width="0.8" points="9.04231305 43.7604526 76.0097767 43.7604526 76.0097767 3.43821347 9.04231305 3.43821347"></polygon>
                    </g>
                </g>
                <g id="Group-11" transform="translate(85.000000, 19.000000)">
                    <g id="Group-3" transform="translate(-0.000000, -0.000000)">
                        <path d="M1.97062983,1.36714658 C1.97062983,1.69070152 1.70590679,1.95306096 1.37943694,1.95306096 C1.05296709,1.95306096 0.788244048,1.69070152 0.788244048,1.36714658 C0.788244048,1.04359164 1.05296709,0.781232196 1.37943694,0.781232196 C1.70590679,0.781232196 1.97062983,1.04359164 1.97062983,1.36714658" id="Path" stroke="#333333"></path>
                        <path d="M25.6183454,1.36714658 C25.6183454,1.69070152 25.3537537,1.95306096 25.0271525,1.95306096 C24.7006827,1.95306096 24.4359596,1.69070152 24.4359596,1.36714658 C24.4359596,1.04359164 24.7006827,0.781232196 25.0271525,0.781232196 C25.3537537,0.781232196 25.6183454,1.04359164 25.6183454,1.36714658" id="Path" stroke="#333333"></path>
                        <path d="M1.97062983,21.1580324 C1.97062983,21.4815873 1.70590679,21.7439467 1.37943694,21.7439467 C1.05296709,21.7439467 0.788244048,21.4815873 0.788244048,21.1580324 C0.788244048,20.8344774 1.05296709,20.572118 1.37943694,20.572118 C1.70590679,20.572118 1.97062983,20.8344774 1.97062983,21.1580324" id="Path" stroke="#333333"></path>
                        <path d="M25.6183454,21.1580324 C25.6183454,21.4815873 25.3537537,21.7439467 25.0271525,21.7439467 C24.7006827,21.7439467 24.4359596,21.4815873 24.4359596,21.1580324 C24.4359596,20.8344774 24.7006827,20.572118 25.0271525,20.572118 C25.3537537,20.572118 25.6183454,20.8344774 25.6183454,21.1580324" id="Path" stroke="#333333"></path>
                        <path d="M-1.31376198e-05,1.56245137 L-1.31376198e-05,20.9627276 C-1.31376198e-05,21.8220687 0.70941833,22.5251659 1.57650123,22.5251659 L32.8440363,22.5251659 C33.7111192,22.5251659 34.4205506,21.8220687 34.4205506,20.9627276 L34.4205506,1.56245137 C34.4205506,0.703110278 33.7111192,1.30203196e-05 32.8440363,1.30203196e-05 L1.57650123,1.30203196e-05 C0.70941833,1.30203196e-05 -1.31376198e-05,0.703110278 -1.31376198e-05,1.56245137" id="Path" stroke="#63BA97" fill="#FFFFFF"></path>
                    </g>
                    <circle id="Oval" fill="#91CEB6" cx="4" cy="4" r="1"></circle>
                    <circle id="Oval-Copy" fill="#91CEB6" cx="7" cy="4" r="1"></circle>
                    <circle id="Oval-Copy-2" fill="#91CEB6" cx="10" cy="4" r="1"></circle>
                    <circle id="Oval-Copy-5" fill="#91CEB6" cx="13" cy="4" r="1"></circle>
                    <circle id="Oval-Copy-4" fill="#91CEB6" cx="16" cy="4" r="1"></circle>
                    <circle id="Oval-Copy-3" fill="#91CEB6" cx="19" cy="4" r="1"></circle>
                    <circle id="Oval-Copy-11" fill="#91CEB6" cx="4" cy="7" r="1"></circle>
                    <circle id="Oval-Copy-10" fill="#91CEB6" cx="7" cy="7" r="1"></circle>
                    <circle id="Oval-Copy-9" fill="#91CEB6" cx="10" cy="7" r="1"></circle>
                    <circle id="Oval-Copy-8" fill="#91CEB6" cx="13" cy="7" r="1"></circle>
                    <circle id="Oval-Copy-7" fill="#91CEB6" cx="16" cy="7" r="1"></circle>
                    <circle id="Oval-Copy-6" fill="#91CEB6" cx="19" cy="7" r="1"></circle>
                    <path d="M36.7343783,10.7813337 L36.7343783,16.2062118 C36.7343783,16.3642605 36.6032672,16.4937727 36.4431191,16.4937727 L29.0254894,16.4937727 C28.8653413,16.4937727 28.7343783,16.3642605 28.7343783,16.2062118 L28.7343783,10.7813337 C28.7343783,10.6231386 28.8653413,10.4937727 29.0254894,10.4937727 L36.4431191,10.4937727 C36.6032672,10.4937727 36.7343783,10.6231386 36.7343783,10.7813337" id="Fill-4" stroke="#91CEB6" stroke-width="0.8" fill="#FFFFFF"></path>
                    <path d="M36.7343783,2.78133371 L36.7343783,8.20621176 C36.7343783,8.36440688 36.6032672,8.49377274 36.4431191,8.49377274 L29.0254894,8.49377274 C28.8653413,8.49377274 28.7343783,8.36440688 28.7343783,8.20621176 L28.7343783,2.78133371 C28.7343783,2.62313859 28.8653413,2.49377274 29.0254894,2.49377274 L36.4431191,2.49377274 C36.6032672,2.49377274 36.7343783,2.62313859 36.7343783,2.78133371" id="Fill-6" stroke="#91CEB6" stroke-width="0.8" fill="#FFFFFF"></path>
                    <path d="M17.8246536,18.4032254 L17.8246536,23.6886799 C17.8246536,23.8850436 17.6709145,24.0459527 17.4829145,24.0459527 L10.1663928,24.0459527 C9.97839277,24.0459527 9.82465364,23.8850436 9.82465364,23.6886799 L9.82465364,18.4032254 C9.82465364,18.2066799 9.97839277,18.0459527 10.1663928,18.0459527 L17.4829145,18.0459527 C17.6709145,18.0459527 17.8246536,18.2066799 17.8246536,18.4032254" id="Fill-9" stroke="#91CEB6" stroke-width="0.8" fill="#FFFFFF"></path>
                </g>
            </g>
        </g>
    </g>
</svg>