<?xml version="1.0" encoding="UTF-8"?>
<svg width="108px" height="50px" viewBox="0 0 108 50" version="1.1" xmlns="http://www.w3.org/2000/svg" xmlns:xlink="http://www.w3.org/1999/xlink">
    <!-- Generator: Sketch 63.1 (92452) - https://sketch.com -->
    <title>2</title>
    <desc>Created with Sketch.</desc>
    <g id="v3" stroke="none" stroke-width="1" fill="none" fill-rule="evenodd">
        <g id="Covid-19_v3" transform="translate(-986.000000, -738.000000)">
            <g id="2" transform="translate(987.000000, 739.000000)">
                <g id="Group-16" transform="translate(61.000000, 0.000000)">
                    <polygon id="Rectangle" stroke="#63BA97" fill="#FFFFFF" points="0 0 34.6293156 0 45 10.5563978 45 48 0 48"></polygon>
                    <path d="M12.9044118,30.3608889 C13.0879412,30.3608889 13.2466176,30.2934815 13.3804412,30.1586667 C13.5142647,30.0238519 13.5811765,29.8524444 13.5811765,29.6444444 C13.5811765,29.421037 13.5142647,29.2419259 13.3804412,29.1071111 C13.2466176,28.9722963 13.0879412,28.9048889 12.9044118,28.9048889 C12.7132353,28.9048889 12.5507353,28.9722963 12.4169118,29.1071111 C12.2830882,29.2419259 12.2161765,29.421037 12.2161765,29.6444444 C12.2161765,29.8524444 12.2830882,30.0238519 12.4169118,30.1586667 C12.5507353,30.2934815 12.7132353,30.3608889 12.9044118,30.3608889 Z M16.3111765,30.2222222 L16.3111765,22.6417778 L15.3591176,22.6417778 L15.3591176,30.2222222 L16.3111765,30.2222222 Z M19.2361765,30.2222222 L19.2361765,26.0506667 C19.2361765,25.7117037 19.2227941,25.3380741 19.1960294,24.9297778 C19.1692647,24.5214815 19.1444118,24.1478519 19.1214706,23.8088889 L19.1214706,23.8088889 L19.1673529,23.8088889 L19.7638235,25.5306667 L21.1861765,29.4595556 L21.8170588,29.4595556 L23.2394118,25.5306667 L23.8358824,23.8088889 L23.8817647,23.8088889 C23.8588235,24.1478519 23.8320588,24.5214815 23.8014706,24.9297778 C23.7708824,25.3380741 23.7555882,25.7117037 23.7555882,26.0506667 L23.7555882,26.0506667 L23.7555882,30.2222222 L24.6502941,30.2222222 L24.6502941,22.6417778 L23.4917647,22.6417778 L22.0694118,26.6862222 C21.9776471,26.9481481 21.8916176,27.212 21.8113235,27.4777778 L21.6865809,27.875 L21.6865809,27.875 L21.5532353,28.2693333 L21.5073529,28.2693333 C21.4155882,28.0074074 21.3257353,27.7435556 21.2377941,27.4777778 L21.1044485,27.0805556 L21.1044485,27.0805556 L20.9682353,26.6862222 L19.5229412,22.6417778 L18.3758824,22.6417778 L18.3758824,30.2222222 L19.2361765,30.2222222 Z M29.6744118,30.3608889 C30.1791176,30.3608889 30.6302941,30.2780741 31.0279412,30.1124444 C31.4255882,29.9468148 31.7467647,29.7368889 31.9914706,29.4826667 L31.9914706,29.4826667 L31.9914706,26.2933333 L29.5252941,26.2933333 L29.5252941,27.0906667 L31.1197059,27.0906667 L31.1197059,29.0666667 C30.9667647,29.2053333 30.7698529,29.3151111 30.5289706,29.396 C30.2880882,29.4768889 30.0338235,29.5173333 29.7661765,29.5173333 C29.3608824,29.5173333 29.0033824,29.4441481 28.6936765,29.2977778 C28.3839706,29.1514074 28.1239706,28.9434074 27.9136765,28.6737778 C27.7033824,28.4041481 27.5427941,28.0786667 27.4319118,27.6973333 C27.3210294,27.316 27.2655882,26.8865185 27.2655882,26.4088889 C27.2655882,25.938963 27.3248529,25.5152593 27.4433824,25.1377778 C27.5619118,24.7602963 27.7282353,24.4386667 27.9423529,24.1728889 C28.1564706,23.9071111 28.4164706,23.702963 28.7223529,23.5604444 C29.0282353,23.4179259 29.3723529,23.3466667 29.7547059,23.3466667 C30.1370588,23.3466667 30.4544118,23.416 30.7067647,23.5546667 C30.9591176,23.6933333 31.1808824,23.8628148 31.3720588,24.0631111 L31.3720588,24.0631111 L31.8997059,23.4391111 C31.7926471,23.3235556 31.6683824,23.2099259 31.5269118,23.0982222 C31.3854412,22.9865185 31.2248529,22.8863704 31.0451471,22.7977778 C30.8654412,22.7091852 30.6666176,22.6379259 30.4486765,22.584 C30.2307353,22.5300741 29.9917647,22.5031111 29.7317647,22.5031111 C29.2347059,22.5031111 28.7739706,22.5936296 28.3495588,22.7746667 C27.9251471,22.9557037 27.56,23.2157037 27.2541176,23.5546667 C26.9482353,23.8936296 26.7092647,24.3057778 26.5372059,24.7911111 C26.3651471,25.2764444 26.2791176,25.8234074 26.2791176,26.432 C26.2791176,27.0482963 26.3632353,27.601037 26.5314706,28.0902222 C26.6997059,28.5794074 26.9329412,28.9915556 27.2311765,29.3266667 C27.5294118,29.6617778 27.8869118,29.9179259 28.3036765,30.0951111 C28.7204412,30.2722963 29.1773529,30.3608889 29.6744118,30.3608889 Z" id=".IMG" fill="#63BA97" fill-rule="nonzero"></path>
                    <polygon id="Rectangle-Copy" stroke="#63BA97" stroke-linejoin="round" points="34.4117647 0 45 10.6666667 34.4117647 10.6666667"></polygon>
                </g>
                <g id="Group-28">
                    <rect id="Rectangle" stroke="#63BA97" fill="#FFFFFF" x="0" y="0" width="48" height="48" rx="9"></rect>
                    <g id="Group-14" transform="translate(9.428571, 7.714286)" fill-rule="nonzero">
                        <g id="Group">
                            <path d="M15.6071429,28.6357143 L15.6071429,32.1190476 C16.15,32.0285714 16.6928571,31.847619 17.1452381,31.5761905 L27.1428571,25.8761905 C28.5452381,25.0619048 29.4047619,23.6142857 29.4047619,21.9857143 L29.4047619,10.6309524 C29.4047619,10.1333333 29.3142857,9.63571429 29.1333333,9.13809524 L26.102381,10.902381 L17.7333333,15.697619 C16.0142857,16.9190476 15.652381,18.05 15.6071429,19.4071429 L15.6071429,28.6357143 Z" id="Path" fill="#63BA97"></path>
                            <path d="M25.4238095,9.68095238 L28.4547619,7.91666667 C28.0928571,7.41904762 27.6404762,7.01190476 27.1428571,6.74047619 L17.1452381,1.04047619 C15.7428571,0.226190476 14.0238095,0.271428571 12.6666667,1.04047619 L2.71428571,6.74047619 C2.17142857,7.05714286 1.71904762,7.46428571 1.35714286,7.96190476 L4.38809524,9.72619048 L12.7571429,14.5214286 C13.752381,15.1547619 14.4309524,15.7880952 14.8833333,16.5119048 C15.3357143,15.7880952 16.0142857,15.1547619 17.0095238,14.5214286 L25.4238095,9.68095238 Z" id="Path" fill="#63BA97"></path>
                            <path d="M3.7547619,10.947619 L0.678571429,9.18333333 C0.497619048,9.63571429 0.407142857,10.1333333 0.407142857,10.6309524 L0.407142857,22.0309524 C0.407142857,23.6142857 1.26666667,25.1071429 2.66904762,25.9214286 L12.6214286,31.6214286 C13.0738095,31.8928571 13.6166667,32.0738095 14.1595238,32.1642857 L14.1595238,28.6809524 L14.1595238,19.4071429 C14.1142857,18.05 13.752381,16.9190476 12.0333333,15.697619 L3.7547619,10.947619 Z" id="Path" fill="#63BA97"></path>
                            <path d="M29.1333333,9.13809524 L26.102381,10.902381 C26.1928571,11.2190476 26.2833333,11.5809524 26.2833333,11.9428571 L26.2833333,20.7190476 C26.2833333,21.9857143 25.6047619,23.2071429 24.4738095,23.8404762 L16.7833333,28.2285714 C16.4214286,28.4095238 16.0595238,28.5452381 15.652381,28.6357143 L15.652381,32.1190476 C16.1952381,32.0285714 16.7380952,31.847619 17.1904762,31.5761905 L27.1428571,25.8761905 C28.5452381,25.0619048 29.4047619,23.6142857 29.4047619,21.9857143 L29.4047619,10.6309524 C29.4047619,10.1333333 29.3142857,9.63571429 29.1333333,9.13809524 Z" id="Path" fill="#AADCC9"></path>
                            <path d="M5.42857143,8.82142857 L13.0738095,4.43333333 C14.2047619,3.8 15.6071429,3.8 16.6928571,4.43333333 L24.3833333,8.82142857 C24.7904762,9.04761905 25.1071429,9.36428571 25.3785714,9.68095238 L28.4095238,7.91666667 C28.047619,7.41904762 27.5952381,7.01190476 27.097619,6.74047619 L17.1452381,1.04047619 C15.7428571,0.226190476 14.0238095,0.271428571 12.6666667,1.04047619 L2.71428571,6.74047619 C2.17142857,7.05714286 1.71904762,7.46428571 1.35714286,7.96190476 L4.38809524,9.72619048 C4.7047619,9.36428571 5.02142857,9.04761905 5.42857143,8.82142857 Z" id="Path" fill="#AADCC9"></path>
                            <path d="M13.0738095,28.2285714 L5.42857143,23.8404762 C4.29761905,23.2071429 3.61904762,21.9857143 3.61904762,20.7190476 L3.61904762,11.9428571 C3.61904762,11.5809524 3.66428571,11.2642857 3.7547619,10.947619 L0.678571429,9.18333333 C0.497619048,9.63571429 0.407142857,10.1333333 0.407142857,10.6309524 L0.407142857,22.0309524 C0.407142857,23.6142857 1.26666667,25.1071429 2.66904762,25.9214286 L12.6214286,31.6214286 C13.0738095,31.8928571 13.6166667,32.0738095 14.1595238,32.1642857 L14.1595238,28.6809524 C13.797619,28.5452381 13.4357143,28.4095238 13.0738095,28.2285714 Z" id="Path" fill="#AADCC9"></path>
                        </g>
                    </g>
                </g>
            </g>
        </g>
    </g>
</svg>