<?xml version="1.0" encoding="UTF-8"?>
<svg width="54px" height="54px" viewBox="0 0 54 54" version="1.1" xmlns="http://www.w3.org/2000/svg" xmlns:xlink="http://www.w3.org/1999/xlink">
    <!-- Generator: Sketch 63.1 (92452) - https://sketch.com -->
    <title>3</title>
    <desc>Created with Sketch.</desc>
    <g id="v3" stroke="none" stroke-width="1" fill="none" fill-rule="evenodd">
        <g id="Covid-19_v3" transform="translate(-1222.000000, -737.000000)">
            <g id="3" transform="translate(1223.000000, 738.000000)">
                <circle id="Oval" stroke="#63BA97" fill="#FFFFFF" cx="26" cy="26" r="26"></circle>
                <g id="Group-2" transform="translate(11.375000, 10.562500)" fill="#333333">
                    <polygon id="Fill-1" points="14.6454203 28.8177181 15.2882229 28.8177181 15.2882229 1.41519665 14.6454203 1.41519665"></polygon>
                    <polygon id="Fill-6" points="7.91262494 3.39222969 8.46949873 3.07087136 22.1665428 26.8020333 21.609669 27.1236689"></polygon>
                    <polygon id="Fill-12" points="3.06965243 8.47218674 3.39119229 7.91486988 27.1152908 21.6159919 26.7940281 22.1733088"></polygon>
                    <polygon id="Fill-18" points="26.8649055 8.47218674 26.5433656 7.91486988 2.81926711 21.6159919 3.14080698 22.1733088"></polygon>
                    <polygon id="Fill-24" points="22.0219607 3.39222969 21.4648097 3.07087136 7.76776569 26.8020333 8.32491667 27.1236689"></polygon>
                    <polygon id="Fill-30" points="1.4148863 15.2934956 28.8089743 15.2934956 28.8089743 14.6505016 1.4148863 14.6505016"></polygon>
                    <path d="M14.9674314,2.25144921 C15.5872272,2.25144921 16.092821,1.74570495 16.092821,1.1257246 C16.092821,0.505744256 15.5872272,4.72832773e-14 14.9674314,4.72832773e-14 C14.3479128,4.72832773e-14 13.8423191,0.505744256 13.8423191,1.1257246 C13.8423191,1.74570495 14.3479128,2.25144921 14.9674314,2.25144921" id="Fill-2"></path>
                    <path d="M14.9674314,29.9434427 C15.5872272,29.9434427 16.092821,29.4374211 16.092821,28.8171635 C16.092821,28.1974604 15.5872272,27.6919935 14.9674314,27.6919935 C14.3479128,27.6919935 13.8423191,28.1974604 13.8423191,28.8171635 C13.8423191,29.4374211 14.3479128,29.9434427 14.9674314,29.9434427" id="Fill-4"></path>
                    <path d="M7.48356325,2.00611888 C8.02158815,1.69529689 8.71012698,1.87968282 9.02085645,2.41814518 C9.33158593,2.95633027 9.14725488,3.64479682 8.60922998,3.95589608 C8.0706507,4.2664408 7.38266626,4.08205487 7.07165959,3.54386978 C6.76120731,3.00540742 6.94526116,2.31694087 7.48356325,2.00611888" id="Fill-8"></path>
                    <path d="M21.3254665,25.9879902 C21.8634914,25.6771682 22.5520303,25.8615542 22.8627597,26.4000165 C23.1734892,26.9382016 22.9891582,27.6269454 22.4511333,27.9374901 C21.912554,28.2483121 21.2245695,28.0639262 20.9135629,27.5257411 C20.6031106,26.9872788 20.7871644,26.2988122 21.3254665,25.9879902" id="Fill-10"></path>
                    <path d="M2.00530002,7.48631816 C2.3160295,6.9478558 3.00429113,6.76346988 3.54259322,7.07429187 C4.08089531,7.38483659 4.26494917,8.07330314 3.95449688,8.6117655 C3.6437674,9.15022786 2.95550577,9.33461378 2.41692649,9.02379179 C1.87890159,8.71269253 1.69457055,8.02422598 2.00530002,7.48631816" id="Fill-14"></path>
                    <path d="M25.9797561,21.3320376 C26.2907628,20.7938525 26.9790244,20.6091893 27.5173265,20.9197341 C28.0556286,21.2308333 28.2396825,21.9192999 27.9292302,22.4577622 C27.6182235,22.9962246 26.9302391,23.1803332 26.3916598,22.8697885 C25.8536349,22.5586893 25.6693038,21.8702227 25.9797561,21.3320376" id="Fill-16"></path>
                    <path d="M27.9292856,7.48631816 C27.6185561,6.9478558 26.9302945,6.76346988 26.3922696,7.07429187 C25.8539675,7.38483659 25.6693593,8.07330314 25.9803659,8.6117655 C26.2908182,9.15022786 26.9790799,9.33461378 27.517382,9.02379179 C28.055684,8.71269253 28.2400151,8.02422598 27.9292856,7.48631816" id="Fill-20"></path>
                    <path d="M3.95455232,21.3320376 C3.64382284,20.7938525 2.95556121,20.6091893 2.41725912,20.9197341 C1.87923422,21.2308333 1.69462598,21.9192999 2.00563265,22.4577622 C2.31608494,22.9962246 3.00434657,23.1803332 3.54264866,22.8697885 C4.08095075,22.5586893 4.26500461,21.8702227 3.95455232,21.3320376" id="Fill-22"></path>
                    <path d="M22.4509947,2.00611888 C21.9126926,1.69529689 21.2244309,1.87968282 20.9134243,2.41814518 C20.602972,2.95633027 20.7870258,3.64479682 21.3253279,3.95589608 C21.86363,4.2664408 22.5518917,4.08205487 22.8626211,3.54386978 C23.1733506,3.00540742 22.9887424,2.31694087 22.4509947,2.00611888" id="Fill-26"></path>
                    <path d="M8.60911911,25.9879902 C8.07081702,25.6771682 7.38255538,25.8615542 7.07154872,26.4000165 C6.76109643,26.9382016 6.94515029,27.6269454 7.48345238,27.9374901 C8.02175447,28.2483121 8.7100161,28.0639262 9.02074558,27.5257411 C9.33147505,26.9872788 9.14714401,26.2988122 8.60911911,25.9879902" id="Fill-28"></path>
                    <path d="M-1.52640137e-14,14.9718322 C-1.52640137e-14,14.3501883 0.503653398,13.8461076 1.12538954,13.8461076 C1.74684849,13.8461076 2.25077908,14.3501883 2.25077908,14.9718322 C2.25077908,15.5934762 1.74684849,16.0978341 1.12538954,16.0978341 C0.503653398,16.0978341 -1.52640137e-14,15.5934762 -1.52640137e-14,14.9718322" id="Fill-32"></path>
                    <path d="M27.6837511,14.9718322 C27.6837511,14.3501883 28.1874045,13.8461076 28.8091407,13.8461076 C29.4305996,13.8461076 29.934253,14.3501883 29.934253,14.9718322 C29.934253,15.5934762 29.4305996,16.0978341 28.8091407,16.0978341 C28.1874045,16.0978341 27.6837511,15.5934762 27.6837511,14.9718322" id="Fill-33"></path>
                    <path d="M10.0240331,22.9921487 C5.39884843,20.2612961 3.8623868,14.2968966 6.59242659,9.67033481 C9.32246639,5.04349577 15.2848134,3.50685396 19.9102753,6.23715203 C24.5357372,8.96800465 26.0721988,14.9326814 23.342159,19.5589659 C20.6118421,24.1860822 14.649495,25.7230013 10.0240331,22.9921487" id="Fill-34"></path>
                </g>
                <line x1="8.88518613" y1="7.07924586" x2="45.2837206" y2="43.4777804" id="Path-13" stroke="#63BA97"></line>
            </g>
        </g>
    </g>
</svg>