<?xml version="1.0" encoding="UTF-8"?>
<svg width="15px" height="22px" viewBox="0 0 15 22" version="1.1" xmlns="http://www.w3.org/2000/svg" xmlns:xlink="http://www.w3.org/1999/xlink">
    <!-- Generator: Sketch 63.1 (92452) - https://sketch.com -->
    <title>pin</title>
    <desc>Created with Sketch.</desc>
    <g id="Symbols" stroke="none" stroke-width="1" fill="none" fill-rule="evenodd">
        <g id="pin" transform="translate(0.500000, 0.500000)">
            <path d="M7.19588235,1 C10.6179753,1 13.3917647,3.77378943 13.3917647,7.19588235 C13.3917647,8.37357144 12.5480947,10.5576181 11.0127767,13.5764318 L11.0127767,13.5764318 L10.646264,14.2878214 C10.5125549,14.5442038 10.3745341,14.8057349 10.2317265,15.0734521 L10.2317265,15.0734521 L9.78846884,15.8961988 C9.65163135,16.1478647 9.51213728,16.4024998 9.36728314,16.6651385 L9.36728314,16.6651385 L8.67013478,17.9180297 L7.6466316,19.7359278 C7.44944127,20.0852612 6.94232343,20.0852612 6.74483162,19.7353929 L6.74483162,19.7353929 L5.02448157,16.6651385 L4.60329587,15.8961988 C4.45043993,15.6150724 4.30284569,15.3411692 4.16003816,15.0734521 L4.16003816,15.0734521 L3.74550068,14.2878214 C1.97845753,10.8995801 1,8.46416291 1,7.19588235 C1,3.77378943 3.77378943,1 7.19588235,1 Z M7.19588235,4.12588235 C5.50051365,4.12588235 4.12588235,5.50073098 4.12588235,7.19588235 C4.12588235,8.89143649 5.50032821,10.2658824 7.19588235,10.2658824 C8.89143649,10.2658824 10.2658824,8.89143649 10.2658824,7.19588235 C10.2658824,5.50073098 8.89125106,4.12588235 7.19588235,4.12588235 Z" id="Combined-Shape" fill="#333"></path>
            <path d="M7.19588235,-7.10542736e-15 C11.17026,-7.10542736e-15 14.3917647,3.22150468 14.3917647,7.19588235 C14.3917647,8.63850577 13.4537672,11.0247387 11.7279228,14.3741184 L11.5329277,14.7502362 C11.3302515,15.1388606 11.1179476,15.5388621 10.8943819,15.9538135 L10.6670018,16.3738806 C10.3914955,16.8805805 10.1055559,17.3987593 9.78742655,17.9689438 L8.5177728,20.22696 C7.93761755,21.2547388 6.45414715,21.2547388 5.87369042,20.2264251 L4.37143676,17.5504232 C4.14389107,17.1403873 3.93139264,16.7539055 3.72476295,16.3738806 L3.27751051,15.5437131 C3.13335092,15.2734586 2.99395449,15.0093192 2.85883698,14.7502362 C1.0087655,11.2027911 8.8817842e-16,8.69193627 8.8817842e-16,7.19588235 C8.8817842e-16,3.22150468 3.22150468,-7.10542736e-15 7.19588235,-7.10542736e-15 Z M7.19588235,1 C3.77378943,1 1,3.77378943 1,7.19588235 C1,8.46416291 1.97845753,10.8995801 3.74550068,14.2878214 L4.16003816,15.0734521 C4.30284569,15.3411692 4.45043993,15.6150724 4.60329587,15.8961988 L5.02448157,16.6651385 L6.74483162,19.7353929 C6.94232343,20.0852612 7.44944127,20.0852612 7.6466316,19.7359278 L8.67013478,17.9180297 L9.36728314,16.6651385 C9.51213728,16.4024998 9.65163135,16.1478647 9.78846884,15.8961988 L10.2317265,15.0734521 C10.3745341,14.8057349 10.5125549,14.5442038 10.646264,14.2878214 L11.0127767,13.5764318 C12.5480947,10.5576181 13.3917647,8.37357144 13.3917647,7.19588235 C13.3917647,3.77378943 10.6179753,1 7.19588235,1 Z M7.19588235,4.12588235 C8.89125106,4.12588235 10.2658824,5.50073098 10.2658824,7.19588235 C10.2658824,8.89143649 8.89143649,10.2658824 7.19588235,10.2658824 C5.50032821,10.2658824 4.12588235,8.89143649 4.12588235,7.19588235 C4.12588235,5.50073098 5.50051365,4.12588235 7.19588235,4.12588235 Z M7.19588235,5.12588235 C6.05283379,5.12588235 5.12588235,6.05298034 5.12588235,7.19588235 C5.12588235,8.33915174 6.05261296,9.26588235 7.19588235,9.26588235 C8.33915174,9.26588235 9.26588235,8.33915174 9.26588235,7.19588235 C9.26588235,6.05298034 8.33893092,5.12588235 7.19588235,5.12588235 Z" id="Shape-Copy" fill="#FFFFFF" fill-rule="nonzero"></path>
        </g>
    </g>
</svg>